<?xml version="1.0" encoding="UTF-8"?><svg id="Layer_1" xmlns="http://www.w3.org/2000/svg" viewBox="0 0 201.25 57.81"><defs><style>.cls-1{fill:#144e26;}</style></defs><path class="cls-1" d="M201.25,44.52c-4.53-.35-9.06-.45-13.5-1.1-7.08-1.04-13.95-1.3-20.66,1.94-1.26,.61-3.2-.17-4.79-.59-4.82,0-9.64-.04-14.46,.02-1.83,.02-3.73-.52-5.19,1.61-.51,.74-2.72,.32-4.16,.43-4.08,.3-8.04,.29-9.97-3.53-1.65,.59-2.91,1.43-4.15,1.41-7.39-.12-14.69,.21-21.94,1.91-1.19,.28-3.24-.76-4.1-1.82-2.61-3.24-5.21-4.11-9.14-2.09-2.06,1.06-4.75,1.03-7.17,1.22-3.74,.3-7.51,.38-10.05,.49-4.17,2.1-7.42,3.85-10.79,5.31-.63,.27-2.15-.37-2.62-1.03-2.56-3.61-6.11-3.8-10.16-4.08-6.79-.46-12.48,.63-16.43,6.67-.55,.85-1.82,1.23-2.38,2.08-3.54,5.41-7.81,5.22-13.35,2.87-4.77-2.02-9.64-3.53-12.78-7.92-1.3-1.81-2.43-3.81-3.19-5.89-.42-1.15-.36-3.45,.28-3.8,1.77-.98,3.99-2.56,5.81,.09,4.45-2.76,4.29-2.74,3.56-8.02-.45-3.27-1.36-5.99-3.93-8.32-2.79-2.53-2.29-5.07,.94-6.49-.32-2.78-.78-5.61-.9-8.47-.04-.87,.63-2.27,1.36-2.6,3.17-1.43,6.45-2.63,9.76-3.72,.69-.23,1.87,.14,2.45,.65,2.03,1.8,4.01,3.68,5.76,5.74,.81,.95,1.19,2.34,1.53,3.59,.34,1.26,.39,2.59,.58,3.93,1.75-1.48,3.15-3.43,4.99-4,2-.62,4.4,.03,6.63,.15,2.51,.14,5.05,.12,7.51,.54,1.09,.19,2.21,1.12,2.99,2,1.26,1.41,2.54,1.69,4.06,.68,2.79-1.86,5.65-3.64,8.26-5.72,2.1-1.67,3.73-2.56,5.76,.08,.53,.69,2.01,.73,3.08,.94,2.29,.44,4.6,.79,7.1,1.2,1.31-2.19,2.81-5.1,4.69-7.74,2.92-4.1,3.64-4.1,7.31-.6,2.38,2.27,4.63,4.67,7.02,6.93,1.81,1.71,3.75,3.27,5.19,4.51,1.83-.51,3.22-.76,4.51-1.28,6.57-2.63,11.68-.82,15.6,4.89,.21,.3,.58,.49,1.19,.98,.73-2.54,1.39-4.87,2.17-7.59,2.68,1.3,5.11,2.42,7.48,3.64,1.5,.78,2.73,.96,3.49-.9,.85-2.09,2.46-2.47,4.62-2.66,5.92-.53,11.3,.7,16.11,3.91,1.88-3.29,3.65-6.54,5.59-9.69,.69-1.13,1.67-2.21,2.77-2.91,.67-.43,2.18-.49,2.71-.03,5.22,4.6,10.35,9.3,15.37,14.12,.42,.41,.1,2.03-.36,2.8-.96,1.6-2.24,3-3.39,4.48,.16,.2,.32,.39,.48,.59,2.23-.82,4.43-1.72,6.7-2.42,.8-.25,1.99-.31,2.62,.11,5.7,3.89,11.31,14.74,11.56,22.49ZM117.88,21.74c-.94-3.08-1.42-5.26-2.3-7.27-.33-.75-1.59-1.59-2.38-1.55-2.21,.11-4.4,.7-6.6,1.01-1.5,.21-2.17,.83-2.07,2.46,.21,3.28,.18,6.57,.33,9.85,.15,3.33,.38,6.66,.59,10.2,3.97,0,7.65,.09,11.32-.08,.7-.03,1.73-1.02,1.93-1.75,.53-1.96,.7-4.02,1.01-6.04,1.46,1.44,2.48,2.89,2.98,4.5,1.31,4.28,3.97,5.76,8.45,5.23,3.71-.44,4.93-1.35,4.45-5.12-.18-1.42-.74-2.8-1.04-4.21-.84-3.99-3.58-7.95,.35-11.97-3.04-1.5-5.63-2.76-8.5-4.18-.8,2.87-1.5,5.41-2.26,8.16-1.53-.8-2.77-1.45-4.25-2.22-.56,.83-1.03,1.54-2.01,2.99Zm-14.29,14.65c0-6.38,.09-12.44-.05-18.49-.05-1.99-2.6-3.63-4.6-3.42-2.66,.28-5.1,.97-7.04,2.97-.67,.69-1.57,1.17-2.37,1.74-.3-.23-.6-.45-.91-.68,1.67-3.36,3.33-6.71,5.11-10.28-2.29-2.16-4.81-4.53-7.28-6.86-7.49,5.05-12.02,23.6-8.35,34.1,2.06-.76,4.12-1.51,6.18-2.28,4.34-1.62,4.28-1.62,4.15-6.13-.03-1.01,.27-2.69,.88-2.95,1.89-.79,4.05-1.58,6.15,.65-2.42,4.13-3.24,8.6-1.18,13.45,3.18-.63,6.3-1.24,9.3-1.83ZM1.22,39.72c-.08,3.96,1.36,6.19,5.23,6.92,2.83,.53,5.5,1.83,8.29,2.66,.73,.22,1.94,.32,2.35-.09,3.77-3.84,7.42-7.8,10.86-11.46-.8-2.29-2.32-4.75-2.41-7.25-.23-6.35-3.36-11.69-4.83-17.71-5.3,1.92-9.28,3.37-15.04,5.46,.6,1.25,1.46,1.86,2.01,2.35,.79,.69,1.78,.91,1.92,1.54,.92,4.13,1.69,8.31,2.36,12.49,.11,.71-.25,1.77-.77,2.24-1.7,1.51-3.57,2.81-5.43,4.23-.67-.94-1.17-1.62-1.69-2.34-.67,.19-1.23,.33-1.77,.51-.36,.12-.69,.3-1.07,.46Zm156.68-2.57c.79-.14,1.3-.11,1.7-.32,6.32-3.31,12.97-3.17,19.8-2.16,4.25,.63,8.58,.76,13.29,1.15-1.49-4.56-2.83-8.66-4.28-13.08-3.84,1.53-7.39,2.94-11.03,4.39,.48,1.33,.84,2.35,1.27,3.54h-9.08c-.65-7.65,.29-14.54,5.7-20.05-.16-.36-.19-.58-.32-.7-1.79-1.63-3.6-3.24-5.39-4.87-2.74-2.48-2.88-2.55-5.17,.31-7.57,9.44-7.7,20.35-6.48,31.78Zm-105.43-5.79c-1.71-5.86-3.28-11.4-4.99-16.9-.18-.58-1.19-1.21-1.87-1.29-3.76-.4-7.54-.57-11.29-.95-1.89-.19-2.98,.54-4.08,2.03-3.99,5.39-3.09,11.78-3.65,17.8-.13,1.34,1.97,4.07,3.19,4.16,5.74,.45,11.54,.2,17.72,.2-.71-1.3-1.19-2.18-1.78-3.25,2.23-.6,4.27-1.14,6.74-1.8Zm11.48,.17c-.18,.41-.36,.82-.54,1.22-5.52-2.19-10.61-.54-16.12,1.18,1.88,2.37,3.54,4.48,5.25,6.55,.27,.32,.95,.72,1.19,.59,2.56-1.3,5.39-2.35,7.47-4.22,1.08-.97,1.81-1.3,3.08-1.29,4.01,.04,8.03,.01,11.99,.01,.15-4.41-1.25-9.99-3.81-12.31-1.55-1.41-4.18-1.65-6.33-2.4-.36-.13-.84-.06-1.12-.27-1.47-1.1-2.89-2.25-4.33-3.39,.21-.32,.42-.63,.64-.95,2.1,.61,4.19,1.26,6.32,1.78,.66,.16,1.75,.23,2.07-.14,1.65-1.92,3.12-4.01,4.66-6.03-.17-.31-.35-.62-.52-.93-1.66,.3-3.32,.6-5.64,1.03-.74-.9-1.9-2.31-2.78-3.38-5.34,3.32-10.29,6.38-15.3,9.49,2.4,6.08,3.93,7.56,10.13,10.4,1.41,.65,2.5,2.02,3.73,3.05Zm82.73-6.01c2.52-1,4.87-1.83,7.13-2.86,1.05-.47,2.8-1.44,2.72-1.97-.27-1.91-.63-4.49-1.96-5.45-4.35-3.15-9.66-3.77-14.67-2.33-1.97,.57-3.19,3.7-4.78,5.63-1.43,1.73-1.56,3.52-.87,5.65,1.07,3.29,1.91,6.67,2.72,10.04,.37,1.52,.95,2.3,2.71,2.25,3.78-.13,7.56-.01,11.34-.06,.72-.01,1.62-.13,2.12-.57,2.75-2.43,4.04-8.38,2.59-12.07-1.05,1.79-1.94,3.48-2.99,5.08-1.55,2.37-3.52,2.26-4.7-.2-.45-.94-.84-1.9-1.37-3.13ZM8.2,14.59c3.46-1.38,6.46-2.48,9.35-3.81,.65-.3,1.35-1.4,1.3-2.08-.16-2.08-.68-4.13-1.1-6.44-3.23,1.21-6.24,2.25-9.17,3.5-.59,.25-1.24,1.28-1.21,1.91,.1,2.18,.49,4.34,.82,6.92Z"/><path class="cls-1" d="M45.73,26.99c-5.07-.62-6.53-1.93-6.2-6,.08-.95,1.79-1.76,3.18-3.03,1.18,3.51,2.05,6.12,3.02,9.03Z"/><path class="cls-1" d="M151.82,22.21c-1.54,.5-2.89,1.07-4.3,1.34-.54,.1-1.21-.48-1.83-.75,.3-.6,.45-1.53,.93-1.76,3.11-1.47,3.91-2.45,5.19,1.17Z"/></svg>