<?xml version="1.0" encoding="UTF-8"?><svg id="Layer_1" xmlns="http://www.w3.org/2000/svg" viewBox="0 0 565.01 162.3"><defs><style>.cls-1{fill:#144e26;}</style></defs><path class="cls-1" d="M565.01,124.98c-12.72-.98-25.43-1.26-37.92-3.09-19.89-2.91-39.18-3.64-58,5.45-3.54,1.71-8.98-.47-13.45-1.65-13.53,0-27.06-.1-40.59,.05-5.15,.06-10.46-1.46-14.58,4.51-1.43,2.08-7.64,.9-11.67,1.2-11.45,.85-22.57,.83-27.99-9.9-4.63,1.64-8.16,4.01-11.64,3.95-20.74-.33-41.25,.58-61.59,5.37-3.34,.79-9.1-2.13-11.51-5.12-7.32-9.08-14.63-11.55-25.65-5.86-5.77,2.98-13.33,2.88-20.14,3.43-10.51,.85-21.07,1.06-28.23,1.38-11.72,5.88-20.83,10.81-30.3,14.91-1.77,.77-6.03-1.03-7.36-2.9-7.18-10.13-17.15-10.67-28.53-11.45-19.06-1.3-35.04,1.76-46.13,18.74-1.56,2.38-5.12,3.46-6.68,5.84-9.93,15.19-21.92,14.65-37.47,8.05-13.4-5.68-27.07-9.92-35.89-22.22-3.64-5.08-6.82-10.7-8.95-16.53-1.17-3.22-1.02-9.68,.78-10.68,4.96-2.75,11.21-7.19,16.31,.25,12.5-7.76,12.05-7.7,9.98-22.53-1.28-9.17-3.81-16.8-11.05-23.37-7.83-7.1-6.43-14.25,2.64-18.22-.9-7.79-2.18-15.76-2.52-23.77-.1-2.45,1.78-6.37,3.81-7.29,8.9-4.01,18.12-7.39,27.4-10.44,1.93-.64,5.26,.38,6.88,1.82,5.69,5.05,11.24,10.34,16.17,16.11,2.27,2.66,3.33,6.56,4.29,10.08,.96,3.53,1.1,7.28,1.61,11.04,4.91-4.14,8.85-9.62,14-11.22,5.61-1.74,12.35,.07,18.6,.41,7.04,.38,14.17,.34,21.08,1.52,3.07,.52,6.21,3.15,8.41,5.62,3.53,3.96,7.13,4.75,11.39,1.91,7.83-5.21,15.87-10.21,23.2-16.06,5.89-4.69,10.48-7.18,16.17,.24,1.49,1.94,5.64,2.06,8.64,2.63,6.43,1.23,12.91,2.21,19.92,3.38,3.68-6.15,7.88-14.31,13.15-21.73,8.19-11.52,10.22-11.51,20.52-1.69,6.68,6.37,13,13.12,19.72,19.46,5.08,4.79,10.54,9.19,14.57,12.67,5.15-1.43,9.05-2.14,12.65-3.58,18.44-7.37,32.8-2.3,43.79,13.72,.58,.84,1.63,1.37,3.34,2.75,2.04-7.14,3.91-13.68,6.09-21.31,7.54,3.65,14.35,6.79,21.01,10.23,4.22,2.18,7.67,2.71,9.8-2.53,2.38-5.87,6.91-6.94,12.96-7.48,16.62-1.49,31.72,1.95,45.24,10.98,5.27-9.23,10.24-18.37,15.69-27.22,1.95-3.17,4.69-6.2,7.79-8.18,1.87-1.2,6.13-1.39,7.6-.1,14.66,12.92,29.07,26.12,43.16,39.65,1.19,1.14,.29,5.7-1,7.86-2.68,4.48-6.29,8.43-9.51,12.59,.45,.55,.89,1.1,1.34,1.64,6.26-2.3,12.45-4.84,18.82-6.79,2.25-.69,5.6-.88,7.34,.31,16,10.91,31.74,41.38,32.45,63.14Zm-234.06-63.96c-2.63-8.65-3.99-14.76-6.45-20.41-.92-2.1-4.45-4.47-6.68-4.36-6.21,.3-12.34,1.96-18.54,2.84-4.21,.59-6.11,2.33-5.82,6.91,.58,9.2,.52,18.44,.92,27.65,.41,9.36,1.06,18.71,1.64,28.62,11.14,0,21.48,.26,31.78-.23,1.95-.09,4.86-2.86,5.42-4.91,1.5-5.5,1.97-11.28,2.84-16.96,4.1,4.05,6.97,8.11,8.36,12.63,3.69,12.03,11.16,16.17,23.71,14.68,10.42-1.24,13.83-3.8,12.49-14.37-.51-4-2.08-7.85-2.92-11.82-2.36-11.19-10.04-22.32,.99-33.61-8.55-4.2-15.8-7.76-23.85-11.72-2.23,8.05-4.21,15.18-6.36,22.91-4.31-2.25-7.78-4.08-11.93-6.24-1.56,2.32-2.9,4.32-5.63,8.4Zm-40.12,41.12c0-17.91,.27-34.92-.15-51.91-.14-5.59-7.31-10.18-12.92-9.6-7.46,.77-14.33,2.71-19.77,8.35-1.88,1.95-4.41,3.28-6.65,4.9-.85-.63-1.7-1.27-2.54-1.9,4.68-9.42,9.36-18.84,14.34-28.87-6.44-6.07-13.5-12.72-20.43-19.25-21.03,14.18-33.73,66.25-23.44,95.74,5.78-2.13,11.57-4.24,17.34-6.39,12.19-4.54,12.01-4.54,11.65-17.21-.08-2.85,.75-7.56,2.48-8.28,5.29-2.21,11.37-4.43,17.28,1.81-6.8,11.61-9.1,24.13-3.31,37.76,8.93-1.75,17.69-3.48,26.12-5.13ZM3.43,111.51c-.22,11.11,3.81,17.37,14.67,19.42,7.94,1.5,15.45,5.13,23.26,7.47,2.05,.61,5.44,.9,6.58-.26,10.59-10.77,20.83-21.89,30.48-32.17-2.25-6.43-6.51-13.32-6.76-20.36-.64-17.81-9.44-32.83-13.55-49.73-14.87,5.4-26.05,9.47-42.22,15.34,1.69,3.52,4.09,5.23,5.63,6.59,2.22,1.95,5.01,2.56,5.4,4.32,2.59,11.61,4.74,23.32,6.62,35.06,.32,1.98-.69,4.98-2.17,6.29-4.76,4.23-10.03,7.88-15.24,11.87-1.89-2.63-3.28-4.55-4.74-6.58-1.88,.54-3.44,.94-4.97,1.45-1,.33-1.94,.83-3.01,1.3Zm439.89-7.23c2.21-.39,3.66-.31,4.76-.89,17.75-9.29,36.41-8.91,55.59-6.07,11.94,1.77,24.08,2.13,37.31,3.22-4.19-12.81-7.96-24.31-12.02-36.73-10.77,4.29-20.75,8.26-30.96,12.32,1.34,3.73,2.37,6.6,3.56,9.94h-25.49c-1.84-21.48,.82-40.83,16-56.28-.45-1.01-.54-1.63-.89-1.96-5.02-4.58-10.1-9.1-15.13-13.66-7.69-6.97-8.09-7.15-14.52,.88-21.25,26.5-21.61,57.14-18.19,89.24Zm-295.99-16.26c-4.79-16.44-9.2-32-14.02-47.44-.51-1.63-3.33-3.41-5.24-3.61-10.54-1.12-21.16-1.59-31.71-2.67-5.3-.54-8.37,1.51-11.47,5.69-11.2,15.13-8.66,33.06-10.24,49.97-.35,3.77,5.52,11.42,8.97,11.69,16.12,1.26,32.39,.56,49.76,.56-1.99-3.65-3.34-6.11-4.99-9.13,6.27-1.68,11.98-3.2,18.94-5.07Zm32.23,.47c-.51,1.15-1.02,2.29-1.53,3.44-15.51-6.15-29.8-1.52-45.25,3.3,5.29,6.65,9.93,12.58,14.73,18.39,.75,.91,2.66,2.01,3.33,1.67,7.19-3.65,15.14-6.59,20.96-11.84,3.04-2.74,5.09-3.66,8.64-3.62,11.27,.11,22.54,.04,33.65,.04,.41-12.39-3.52-28.03-10.71-34.56-4.36-3.96-11.74-4.64-17.78-6.75-1.02-.36-2.36-.17-3.15-.76-4.12-3.08-8.12-6.33-12.16-9.52,.6-.89,1.19-1.78,1.79-2.66,5.91,1.7,11.77,3.55,17.74,5.01,1.85,.45,4.9,.65,5.8-.39,4.64-5.4,8.77-11.24,13.07-16.93-.49-.87-.97-1.74-1.46-2.61-4.66,.85-9.31,1.69-15.85,2.88-2.07-2.51-5.32-6.48-7.81-9.5-15,9.31-28.89,17.92-42.95,26.64,6.73,17.06,11.04,21.23,28.44,29.21,3.97,1.82,7.01,5.66,10.47,8.57Zm232.25-16.86c7.08-2.8,13.67-5.14,20.02-8.02,2.94-1.33,7.86-4.05,7.64-5.54-.76-5.37-1.78-12.6-5.5-15.3-12.21-8.84-27.13-10.59-41.18-6.54-5.54,1.6-8.94,10.38-13.42,15.81-4,4.85-4.38,9.88-2.43,15.87,3.01,9.25,5.35,18.72,7.63,28.18,1.03,4.28,2.67,6.47,7.6,6.3,10.6-.36,21.23-.03,31.84-.18,2.02-.03,4.56-.37,5.94-1.6,7.72-6.83,11.34-23.54,7.28-33.9-2.93,5.02-5.45,9.78-8.39,14.26-4.36,6.64-9.89,6.34-13.19-.56-1.26-2.63-2.34-5.34-3.84-8.78ZM23.01,40.97c9.71-3.88,18.13-6.97,26.26-10.69,1.81-.83,3.8-3.94,3.65-5.84-.45-5.84-1.9-11.61-3.09-18.08-9.08,3.4-17.53,6.33-25.74,9.82-1.66,.71-3.48,3.58-3.4,5.37,.28,6.11,1.38,12.18,2.31,19.42Z"/><path class="cls-1" d="M128.38,75.79c-14.24-1.75-18.33-5.43-17.41-16.84,.21-2.65,5.01-4.94,8.92-8.52,3.3,9.86,5.75,17.17,8.49,25.36Z"/><path class="cls-1" d="M426.23,62.35c-4.33,1.41-8.11,3.01-12.06,3.76-1.52,.29-3.41-1.35-5.13-2.11,.85-1.69,1.27-4.29,2.62-4.93,8.74-4.13,10.99-6.88,14.57,3.29Z"/></svg>