<?xml version="1.0" encoding="UTF-8"?>
<svg id="Layer_1" data-name="Layer 1" xmlns="http://www.w3.org/2000/svg" viewBox="0 0 494.27 630.09">
  <defs>
    <style>
      .cls-1 {
        fill: #1b4d26;
      }
    </style>
  </defs>
  <path class="cls-1" d="M186.37,471.91c-7.06-5.47-5.19-13.46-5.75-20.73-.16-2.11,.27-4.28,.53-6.42,.85-6.95-1.69-11.49-8.28-14.69-7.21-3.5-13.02-9.02-17.7-15.75-1.76-2.54-3.1-8-8.62-3.15-.79,.7-7.86-.32-10.28-3.79-2.4-3.46-5.54-4.87-9.36-5.5-5.03,1.71-10.46,1.17-15.52,2.68-5.13,7.74-5.23,7.86-12.85,1.68-1.77-1.43-3.13-1.98-5.11-1.09q-8.42,3.81-7.88-5.7c1.62-2.01,3.92-1.16,5.95-1.42,2.67-.34,3.36-1.55,1.71-3.82-.23-1.4-1.02-2.33-2.36-2.81-2.71-4.41-6.45-4.58-10.7-2.57-.21,.03-.43,.12-.63,.08-3.35-.63-5.79,4.19-8.74,2.26-3.04-1.98,.8-6.06-1.12-8.9-2.98-.22-1.35,4.09-4.01,4.06-2.72-.03-5.94,1.39-8.04-.61-2.03-1.94-.23-4.03,1.42-5.87,.65-.73,.2-2.44,.26-3.71-1.49-2.32-3.24-4.06-6.31-2.82-3.47,2.57-8.4-1.19-11.71,2.82-.82,1-2.31-.17-2.56-1.75-.42-2.66-3.78-5.9,.25-7.8,5.71-2.68,1.36-9.36,5.48-12.63,.23-.18-3.01-5.09-6.06-3.08-2.2,1.45-4.69,1.48-7.17,2.68,1.25,2.47,6.6,1.07,5,5.27-.92,2.41-1.57,5.41-4,6.68-1.45,.75-3.34-.23-3.73-2.4-1.38-1.71-4.49-1.26-5.02-4.03,.04-4.21,.07-8.41,.11-12.62-1.2-10.06,6.88-2.29,9.87-5.35-4.01-.48-3.55-4.09-4.92-6.49-2.48-4.89-2.46-4.88-5.55-.91-1.27,1.63-3.01,1.12-4.67,.79-3.68-3.92,2.16-6.86,1.07-10.52,.11-.92,.4-1.77,.97-2.51,1.93-1.58,3.96-1.06,6.02-.31,2.74,.99,4.52,.17,5.25-3.06-2.09-1.01-4.64,1.27-6.48-.75-1.28-1.71-3.64-1.99-4.92-3.71-1.36-2.38-.76-4.99-.73-7.49,.08-6.2,1.42-7.06,7.04-4.87,.17,.07,.68,2.45,.74-.05,.1-4.27,3.57-5.93,6.41-8.06,.11-3.74,1.38-7.03,3.59-10.07,4.32-5.95,1.46-13.54-5.93-15.93-1.68-1.62-1.54-3.31-.17-5.03,3.06-1.96,5.24-5.26,9.97-4.25,2.72,.58,5.36-7.1,3.16-10.38-2.82-4.21-3.47-8.5-2.57-13.26,.45-2.36-.69-3.96-2.2-5.67-1.55-1.76-1.2-4.42-.06-6.01,1.15-1.61,3.04-.09,4.46,.79,8.57,3.85,6.06,12.22,7.57,19.11,1.41-1.29,.71-2.6,.3-3.61-1.74-4.26-1.65-7.72,2.86-10.41,2.13-1.27,2.33-3.42-.89-3.64-3.84-.26-5.99-1.62-5.82-5.83,.19-4.58-1.2-9.82,5.54-11.06-.03-2.32,4.85-2.28,2.65-5.9-.82-1.35-1.48-4.13,1.22-4.77,2.41-.57,2.97,1.45,3.46,3.51,.54,2.31,1.85,4.25,4.68,4.33,2.28,.06,3.04-2.15,4.27-3.31,1.48-1.39-2.22-9.04-4.41-9.73-.8-.25-1.93,.09-2.5-.36-1.6-1.26-3.89-2.52-2.08-5.13,1.43-2.06,2.6-1.72,4.55,.01,2.74,2.44,7.11,2.98,9.13,.02,1.96-2.87,2.11-7.25-1.76-10.01-1.88-2.52-2.04-5.02,.11-7.48,2.8-2.11,3.94-6.11,8.74-6.13,2.04,0,1.87-3.41,.48-5.35-.97-1.35-3.02-2.73-1.57-4.35,3.05-3.41,.66-5.18-.81-8.33-2.68-5.76,2.56-4.4,5.7-4.41,1.85,1.39,3.69,2.74,5.6,.08,6.53-1.18,10.65-3.81,7.56-11.49-.57-1.41-.11-3.43,1.58-4.58,6.66-4.57,9.31-12.17,11.99-18.89,4-10.05,13.01-13.96,20.25-19.98,5.2-4.33,11.14-7.43,18.64-8.02,5-.39,9.78-4.39,14.51-7.04,3.15-1.76,5.93-3.91,9.99-3.02,3.56,.78,3.76-1.65,3.31-4.36-.69-4.11,3.5-4.69,4.51-3.43,5.15,6.4,9.73,1.05,13.35-.93,6.26-3.42,12.17-6.97,19.56-6.52,3.89,.24,3.81-2.5,4.11-5.05,1.63-1.44,3.15-1.45,4.06,.66,2.82,6.6,4.11,7.13,11.16,4.28q3.62-7.96,12.84-5.14c3.37-.68,6.46-2.1,9.46-3.72,1.23-.11,2.49,.06,3.71-.12,4.55-.7,5.83-2.79,2.69-6.64-.76-1.47-1.68-2.87-2.22-4.41-.4-1.14-.71-2.61,.68-3.46,1.21-.73,3.17-.72,3.55,.24,1.82,4.53,8.87,3.13,9.65,9.14,.33,2.49,6.04,1.91,7.34-1.82,2.31-6.62,6.72-4.93,11.64-5.33,6.58-.54,12.21,2.27,18.34,3.03,2.5-2.54,5.44-3.82,9.08-3.71,2.83,.09,5.5-.5,6.39-3.85,.87-1.74,2.44-1.19,3.84-1.17,5.67,.33,4.36,5.06,5.29,8.38-.24-3.35-2.05-6.95,1.56-9.67,2.7-.97,4.89-.38,6.06,3.75,3.15-6.58,.82-11.27-1.24-16.51,7.11,3.42,9.95,10.84,7.76,17.58-.54,1.66-3.72,3.58-.31,5.24,2.32,1.13,4.66,.39,6-2.07,2.36-4.33,5.29-5.54,9.01-1.46,1.95-2.35-.24-7.3,4.82-6.49,5.39,.87,5.51,5.9,6.3,9.58,.93,4.32,.38,8.97,.47,13.47,.96,1.85,1.88,3.48,4.03,4.56,2.37,1.19,2.91,3.51,.48,5.62-3.05,.6-6.41-.65-9.22,1.4,.11,1.73,1.52,1.83,2.32,1.61,7.18-2.02,12.55,2.78,18.22,5.34,4.44,2,4.09,8.27,6.7,12.32,6.91,10.69,15.13,19.65,27.25,24.36,.37,.14,1.07-.58,1.62-.91,2.6-2.05,5.39-2.92,8.26-.73,2.76,2.1,.91,4.15-.38,6.12-6.79,3.55-.99,6.85,.2,10.25,1.55,1.53,.74,3.96,2.14,5.55,1.61,7.54,3.67,14.82,11.59,18.36,1.4,.62,2.37,2.05,1.66,3-3.89,5.13,.36,7.85,3.19,10.63,1.91,1.88,2.02,4.16,2.77,6.28,6.44,18.36,13.91,36.34,12.74,56.61-.44,7.69,1.95,15.54,2.34,23.51,.43,8.8-1.92,16.9-3.63,25.07-.89,4.26,.55,5.09,3.12,6.53,2.67,1.99,5.34,3.97,2.76,7.82-1.76,.61-3.4,.26-4.88-.77-.64-.45-1.85-1.47-1.89-.69-.33,6.81-10.65,7.12-9.35,15.53,.75,4.86-3.18,9.48-5.75,13.82-1.89,3.2-3.26,5.89-.02,8.99,1.56,1.49,1.88,4.18,.79,5.4-5.82,6.55-2.01,13.82-1.6,20.59,.61,10.07,1.93,20.03-.23,30.1-.7,3.29-.25,6.87-.06,10.3,.35,6.27-.03,12.37-3.18,18-3.34,2.37-6.7,2.19-10.08,.1-7.38-3.06-8.32-8.84-7.63-16.04,1.13-11.79,1.51-23.66,2.2-35.49-1.6-6.11-3.3-1.74-4.97-.04-4.37,8.09-2.25,16.82-2.6,25.32-.08,2.01,1.32,5.33-.94,5.77-2.7,.52-3.76-2.67-4.48-5.14-1.47-1.22-1.07-5.88-4.93-2.66-8.76,9.02-17.47,18.07-26.29,27.03-6.77,6.89-12.76,14.58-20.98,20-1.69,1.12-3.88,3.19-3.9,4.85-.18,12.34-10,15.73-18.42,20.23-5.94,3.17-12.27,5.6-18.43,8.36-3.51,1.75-7.37,2.7-10.78,4.68-18.8,1.45-37-1.19-54.37-8.58-5.02-2.14-10.09-1.14-15.15-1.51-2.01-.15-2.96,1.09-1.96,2.8,2.78,4.74,1.29,9.28-.17,13.9-.25,.8-.4,1.76-.21,2.56,4.52,18.38-1.95,36.69-.14,55.21,1.92,19.64,.5,39.62,2.97,59.24,1.21,9.59,2.52,19.03,2.4,28.73-.09,6.95-2.98,12.08-7.89,16.48-2.68,1.3-5.32,1.51-7.89-.27-11.24-7.97-15.18-19.01-13.81-32.41,.81-7.92,1.02-15.84-.12-23.8-1.62-11.38,1.31-22.64,1.26-34.03-.09-21.5,.25-43.03-3.24-64.28-1.37-8.36-1.86-16.97-4.78-25.08-.61-1.69-1.35-3.09-2.79-4.13-1.36-1.24-3.1-1.24-4.76-1.37-6.72-.55-6.86-.02-6.63,6.58,.21,6.02,2.28,12.24-1.01,18.1,.2,2.41-2.97,2.61-3.15,4.77-3.3,2.51-6.71,1.99-10.15,.34Z"/>
  <path class="cls-1" d="M33.67,293.19c-2.53,4.81-7.48,8.7-4.8,15.24-4.03-.25-2.53-2.52-2.74-3.92-.25-1.62,.35-3.65-2.41-3.58-2.39,.06-3.01,1.54-2.54,3.46,.79,3.27-.64,6.39-.42,9.6-.18,.22-.35,.45-.52,.68-1.31,.89-1.7,2.02-.84,3.45,.64,1.2,1.49,2.31,1.6,3.73-.21,.76-.41,1.52-.62,2.28-.9,1.23-2.16,1.55-3.59,1.46-1.37-.32-2.7-.68-2.6-2.51,2.39-2.53,1.31-3.62-1.63-3.94-1.97-.21-4.56,.63-4.63-2.76,1.67-1.36,3.49-2.65,2.45-5.27,.9-3.09,7.1-2.49,5.23-7.51,1.87-2.31-.61-3.55-1.3-5.22,.2-2.66,2.22-2.5,4.06-2.61,1.85-1.55,3.45-3.34,5.05-5.14,3.82-.74,7.08,.76,10.26,2.58Z"/>
  <path class="cls-1" d="M53.47,207.94c-4.37,2.69-4.94,6.64-4.41,11.41,.35,3.16,1.47,4.51,4.33,3.44,2.37-.89,4.35-.86,5.51,1.32,1.27,2.38-.65,4.67-2.24,5.43-4.84,2.32-5.6,5.02-2.59,9.43,.83,1.22,.45,3.33,.43,5.04-.02,1.34-.47,2.62-2.2,2.53-1.32-.06-2.62-.32-2.88-1.95-.24-1.48-.83-3.1-.47-4.45,1.8-6.7-1.02-11.88-5.04-16.76,4.92-1.63,2.53-5.72,2.55-8.65,.02-5.06,1.43-7.85,7-6.78Z"/>
  <path class="cls-1" d="M424.66,86.96c-.26,1.81,.24,3.79-2.42,3.9-2.36,.1-10.7-6.03-10.62-7.92,.11-2.75,2.27-2.04,3.78-2.17,4.79-.41,8.24,1.24,9.26,6.19Z"/>
  <path class="cls-1" d="M34.04,278.76c-.96,3.01-2.23,6.31-6.35,6.41-2.7,.06-4.56-2.07-3.98-4.65,.93-4.07,4.35-6.23,8.21-6.55,2.74-.23,2.02,2.6,2.12,4.79Z"/>
  <path class="cls-1" d="M199.67,466.8c1.64-5.9,.02-11.77-.02-17.66-.02-2.72-2.25-6.78,1.29-7.93,3.56-1.15,8.07-1.55,11.13,2.29-2.12-.05-4.25-.05-6.37-.15-3.59-.17-6.39,.02-3.16,4.64,1.25,1.79-1.32,17.09-2.86,18.81Z"/>
  <path class="cls-1" d="M28.53,334.65q2.92,4.28,11.31,6.75c-5.46,.37-8.21,4.82-13.28,1.36-3.21-2.2-1.23,2.98-2.99,3.73-3.23-3.45-5.04-6.5,2.07-6.75,3.84-.13,2.37-3.14,2.89-5.09Z"/>
  <path class="cls-1" d="M396.18,55.81c-.67-4.42,.64-6.33,4.75-6.1,2.97,.17,5.63,0,5.43,4.26-.29,6.24-6.41,2.31-8.99,5.14-.86,.95-.94-2.52-1.2-3.3Z"/>
  <path class="cls-1" d="M328.6,26.49c-.78,2.22,3.57,2.53,1.99,4.55-1.16,1.48-3.59,1.11-5.37,.66-4.46-1.13-7.99,2-12.09,2.36,0-1.58,0-3.16,0-4.74,1.19-1.72,2.97-1.8,4.8-1.7,1.09,.18,2.01,.7,2.8,1.46,2.99,.26,4.73-3.27,7.85-2.58Z"/>
  <path class="cls-1" d="M157.89,454.23c-1.27,2.62-4.19,3.83-6.96,3.9-1.95,.05-3.97-2.04-3.36-4.63,1.01-4.33,4.62-1.57,6.98-2.22,1.78-.49,3.51-.1,3.34,2.94Z"/>
  <path class="cls-1" d="M473.24,160.43c.26,3.11-1.55,3.37-3.29,3.37-3.23,0-5.09-1.74-5.43-4.95-.24-2.25,1.03-3.11,3.1-2.91,3.11,.3,4.95,2.08,5.62,4.49Z"/>
  <path class="cls-1" d="M7.8,352.79c-3.74,.48-4.27-1.78-3.81-4.65,.33-2.05,.95-4.57,3.53-4.28,3.43,.39,2.9,3.57,3.17,6.01,.61,2.53,.24,4.1-2.89,2.91Z"/>
  <path class="cls-1" d="M235.47,52.28c-1.66,5.04-5.72,2.4-8.6,2.3-2.57-.09-4.58-1.77-3.61-5.32,.64-2.34-1.64-1.79-3-1.92,.91-3.97,4.24-2.73,4.33-.76,.38,8.89,6.55,5.27,10.89,5.7Z"/>
  <path class="cls-1" d="M16.7,324.43c1.22-.11,2.45-.22,3.67-.32-.18,1.97,3.07,4.56-1.41,5.84-1.65,.47-.54,2.99-.65,4.57-2.59-2.59-5.18-5.19-7.77-7.78,1.75-1.57,4.5-.48,6.16-2.31Z"/>
  <path class="cls-1" d="M258.94,44.59c-3.29,1.9-6.66,3.51-10.63,2.55,.75-2.07,6.68-1.19,3.18-5.9-.9-1.21,1.29-1.69,2.45-1.9,2.33-.43,4.77-.92,4.91,2.7,.28,.84,.61,1.68,.1,2.55Z"/>
  <path class="cls-1" d="M15.5,357.93c2,.41,4.72-.93,5.58,2.28,.43,2.43-1.19,2.91-3.02,3.19-1.17-.13-1.96,.46-2.82,1.21-1.45,1.26-3.39,1.73-4.39-.19-1.08-2.08-.25-3.78,2.44-3.97,1.61-.11,2.17-1.17,2.3-2.6l-.08,.08Z"/>
  <path class="cls-1" d="M302.89,26.54c-1.11,2.5-3.06,3.35-5.65,2.76-1.93-.44-2.01-2.07-1.78-3.51,.42-2.62,1.3-4.99,4.77-4.44,1.25,1.54,4.54,2.04,2.66,5.19Z"/>
  <path class="cls-1" d="M18.06,363.39c1.01-1.06,2.01-2.12,3.02-3.19,1.03,.14,1.8-.27,2.39-1.09,1.28,1.83,5.56-.08,5.02,4.03-.4,.09-1.06,.06-1.17,.29-3.13,6.52-6.19,1.54-9.26-.03Z"/>
  <path class="cls-1" d="M437.46,106.8c1.41-5.86,.26-6.64-7.88-5.39,.92-2.82,2.73-5.02,5.78-4.67,2.33,.27,4.12,2.31,4.5,4.71,.33,2.07,1.25,4.88-2.4,5.35Z"/>
  <path class="cls-1" d="M111.38,404.56c5.1-1.33,9.78-5.06,15.52-2.68-.43,.86-.87,1.73-1.3,2.59-1.67,1.96-3.29,4.04-6.37,2.86-1.26-4.77-5.27-1.75-7.85-2.77Z"/>
  <path class="cls-1" d="M339.3,24.02c-2.89,4.84,.76,10.27-1.28,17.14-2.71-6.28,1.19-13.17-5.57-15.85,2.12-1.3,4.44-1.55,6.86-1.29Z"/>
  <path class="cls-1" d="M258.94,44.59c-.35-.84-1.6-1.64-.1-2.55,4.22,.62,5.81-1.35,5.32-5.38,2.35,.34,4.37,1.59,4.26,3.95-.1,2.2-2.78,2.39-4.45,3.08-1.54,.63-3.34,.63-5.02,.91Z"/>
  <path class="cls-1" d="M382.69,57.29c-.11-1.79,1.88-4.3-1.92-4.77-3.4-.42-2.75-3.11-2.59-5.41,2.18,.23,3.61,2.06,5.29,3.07,3.58,2.15,3.62,5.17-.78,7.1Z"/>
  <path class="cls-1" d="M318.31,29.05c-1.72,.09-3.45,.17-5.17,.26-4.63-1.79-.45-3.65-.04-5.48,1.97-1.36,3.94-1.54,5.74,.24,1.83,1.81,.79,3.44-.52,4.98Z"/>
  <path class="cls-1" d="M80.53,399.53c-.12,.17-.21,.39-.37,.5-1.75,1.26-1.78,4.44-4.78,4.28-1-.05-1.5-.7-1.55-1.6-.16-2.88,.56-5.3,3.64-6.35,2.66-.53,3.89,.33,3.07,3.17Z"/>
  <path class="cls-1" d="M31.16,262.15c.06,1.68,.11,3.36,.17,5.03-1.85-.83-3.64-1.92-5.58-2.41-2.22-.56-2.87-1.96-2.2-3.7,1.12-2.89,2.68-.3,4.02,0,1.22,.27,2.39,.72,3.58,1.08Z"/>
  <path class="cls-1" d="M6.3,368.5c-.41,1.71-1.83,2.31-3.69,2.34-3.05,.05-2.5-2.18-2.6-4.02-.11-1.97,.95-2.87,2.72-2.33,1.75,.54,3.76,1.16,3.58,4.01Z"/>
  <path class="cls-1" d="M491.6,287.82c-2.41-.03-2.61-1.75-2.49-3.51,.1-1.34-.27-3.54,1.82-3.28,1.89,.23,3.31,1.84,3.33,4.04,.02,1.71-.77,2.81-2.67,2.75Z"/>
  <path class="cls-1" d="M168.31,57.54c1.42,5.08-.29,6.74-5.56,5.39-.91-6.28-.42-6.75,5.56-5.39Z"/>
  <path class="cls-1" d="M317.97,458.67c2.02-5.17,6.52-4.66,10.78-4.68-2.52,4.04-6.02,5.8-10.78,4.68Z"/>
  <path class="cls-1" d="M7.8,352.79c1.75-.19,2.6-1.27,2.89-2.91,2.71,2.02,6.06,3.65,4.82,8.04,0,0,.08-.08,.08-.08-4.37,1.05-5.08-3.54-7.79-5.05Z"/>
  <path class="cls-1" d="M188.87,54.9c-3.97,.56-4.53-2.31-4.55-5.03-.02-3.06,2.45-2.76,4.59-2.56,1.81,2.54,1.86,5.07-.04,7.59Z"/>
  <path class="cls-1" d="M168.31,57.54c-4.66-1.1-5.9,1.33-5.56,5.39-3.7-1.97-2.96-5.29-.86-7.14,1.48-1.31,5.32-2.65,6.42,1.74Z"/>
  <path class="cls-1" d="M119.23,407.32c2.26-.65,3.42-3.76,6.37-2.86,1.36,1.83,2.64,4.03-.4,5.06-2.07,.7-5.28,1.98-5.98-2.2Z"/>
  <path class="cls-1" d="M93.39,133.53c-.06,1.36-.99,2.79-3.26,3.01-1.63,.16-2.29-.85-2.24-2.28,.07-1.9,.2-3.84,2.84-4.04,1.9-.14,2.7,.71,2.66,3.31Z"/>
  <path class="cls-1" d="M442.76,117.25c1.82-.6,3.99-2.71,5.02,.79,.4,1.34,.68,3.45-.82,4.03-1.85,.71-4.37,1.1-4.59-2.27-.56-.95-.56-1.82,.39-2.54Z"/>
  <path class="cls-1" d="M411.12,71.57c-1.15,2.01-2.51,2.88-4.31,2.85-1.47-.03-2.48-.93-2.28-2.4,.23-1.74,1.49-3.49,3.09-3.33,1.28,.13,2.39,1.9,3.5,2.88Z"/>
  <path class="cls-1" d="M467.51,296.86c.95,2.64,2.04,5.33-.02,7.34-1.01,.98-2.49-.45-3.1-1.43-2.11-3.43,1.84-3.96,3.11-5.9Z"/>
  <path class="cls-1" d="M147,74.41c-2.25-.09-2.54-1.6-2.41-3.09,.17-1.92,.57-3.77,3.32-3.48,1.98,.21,2.4,1.59,2.46,3.05,.1,2.34-1.52,3.21-3.37,3.52Z"/>
  <path class="cls-1" d="M87.46,419.11c-1.98-.11-4.19,.31-4.31-2-.14-2.65,2.35-2.51,4.11-2.69,1.69-.17,3.86,.03,3.99,2.08,.17,2.7-2.45,2.18-3.79,2.61Z"/>
  <path class="cls-1" d="M93.21,394.22c1.8,.66,3.01,1.93,2.51,3.84-.52,1.95-2.43,1.18-3.81,1.26-2.12,.12-4.24,.1-6.36,.14,0-2.95,2.23-2.65,4.07-2.66,1.9-.01,3.38-.34,3.59-2.58Z"/>
  <path class="cls-1" d="M23.35,269.68c-.17,2.63-1.32,4.25-3.3,4.77-1.84,.48-1.78-1.26-1.97-2.5-.38-2.45,1.05-3.57,3.1-4.11,2.02-.54,1.79,1.19,2.17,1.84Z"/>
  <path class="cls-1" d="M69.95,414.49c3.05,2.42,5.76,3.09,4.63,6.2-.47,1.29-1.85,2.29-3.01,1.73-3.28-1.58-1.2-4.27-1.63-7.94Z"/>
  <path class="cls-1" d="M80.15,388.84c5.76-4.27,8.5-3.62,10.7,2.57-3.3-1.98-6.8-3.11-10.7-2.57Z"/>
  <path class="cls-1" d="M101.08,422.78c-1.65,.03-3.07-.27-2.95-2.37,.12-2.13,1.46-2.95,3.43-2.92,1.69,.02,3.13,.9,3.1,2.54-.04,1.98-1.67,2.76-3.58,2.76Z"/>
  <path class="cls-1" d="M5.2,325.65c1.93,.47,2.7,1.85,2.88,3.66,.18,1.84-.67,2.73-2.55,2.71-2.21-.02-2.92-1.35-2.93-3.27-.01-1.72,1.03-2.62,2.6-3.1Z"/>
  <path class="cls-1" d="M52.98,373.34c1.15-2.01,2.75-3.2,5.06-2.08,2.2,1.06,1.29,3.14,1.25,4.9-2.67,.32-4.64-.92-6.31-2.82Z"/>
  <path class="cls-1" d="M318.31,29.05c2.14-5.61-1.59-5.37-5.21-5.23,.83-2.87,3-3,5.05-1.94,2.88,1.48,3.3,4.22,2.6,7.18-.81,0-1.62-.01-2.43-.02Z"/>
  <path class="cls-1" d="M440.09,401.79c3.36-.03,6.72-.07,10.08-.1-2.8,4.05-6.56,4.09-10.08,.1Z"/>
  <path class="cls-1" d="M23.41,290.61c1.21,4.56-.98,5.77-5.05,5.14-1.01-4.37,.56-6.19,5.05-5.14Z"/>
  <path class="cls-1" d="M361.01,3.17c-.45,1.52-1.16,2.8-2.93,2.86-2.13,.08-2.23-1.42-2.26-3.04-.03-1.8,.82-3.03,2.53-2.99,1.75,.04,2.1,1.79,2.66,3.17Z"/>
  <path class="cls-1" d="M48.92,378.85c2.49,.02,2.89,1.43,2.86,2.96-.03,1.54-1.11,2.11-2.53,2.06-1.87-.06-2.52-1.15-2.36-2.89,.14-1.55,1.15-2.06,2.04-2.13Z"/>
  <path class="cls-1" d="M262.14,466.66c-2.81,.07-3.28-1.17-3.21-2.85,.06-1.47,.72-2.37,2.29-2.34,1.68,.03,2.81,.67,2.86,2.57,.05,1.92-1.07,2.56-1.94,2.63Z"/>
  <path class="cls-1" d="M186.37,471.91c3.38-.11,6.77-.23,10.15-.34-2.85,3.96-6.35,4.08-10.15,.34Z"/>
  <path class="cls-1" d="M478.9,303.52c-1.41-.1-2.56-.56-2.45-2.22,.12-1.76,1.24-2.71,2.94-2.63,1.56,.07,2.07,1.27,2.02,2.68-.06,1.59-1.03,2.19-2.51,2.18Z"/>
  <path class="cls-1" d="M212.39,453.66c1.49,.07,2.49,.69,2.25,2.33-.25,1.69-1.34,2.68-3.05,2.59-1.21-.06-1.78-1-1.87-2.17-.14-1.91,.93-2.66,2.67-2.75Z"/>
  <path class="cls-1" d="M31.01,231.16c1.5-.18,2.54,.42,2.72,1.95,.16,1.29,.04,2.72-1.61,2.94-1.68,.22-2.88-.69-3.21-2.37-.32-1.59,.63-2.31,2.1-2.51Z"/>
  <path class="cls-1" d="M10.37,311.09c2.7-.12,3.37,1.47,2.79,3.68-.83,3.19-3.3,1.68-5.24,1.6-.19-2.22,.55-4.02,2.45-5.27Z"/>
  <path class="cls-1" d="M90.91,140.63c-.79,1.5,2.32,4.18-.75,4.58-2.56,.33-3.85-2.42-4.85-4.66,1.87,.03,3.73,.06,5.6,.08Z"/>
  <path class="cls-1" d="M16.7,324.43c-.74,4.26-3.59,2.92-6.16,2.31-.58-3,.67-4.19,3.64-3.69,.84,.46,1.68,.92,2.52,1.38Z"/>
  <path class="cls-1" d="M431.86,419.62c-.07,1.76-.95,2.57-2.32,2.75-1.57,.21-2.3-.7-2.34-2.19-.04-1.38,.32-2.53,2.01-2.52,1.45,.01,2.21,.93,2.65,1.96Z"/>
  <path class="cls-1" d="M74.55,431.05c.22,1.57-.83,1.84-1.89,1.93-1.77,.15-2.8-.64-2.75-2.53,.03-1.11,.35-2.36,1.61-2.21,1.52,.19,2.41,1.52,3.04,2.8Z"/>
  <path class="cls-1" d="M14.3,298.35c1.43,.35,3.67-.8,3.83,1.94,.1,1.74,0,3.49-2.53,3.28-.52-1.72-3.13-2.92-1.3-5.22Z"/>
  <path class="cls-1" d="M476.33,280.41c.92-3.26-1.68-5.27-2.76-7.82,5.95,2.11,6.66,4.11,2.76,7.82Z"/>
  <path class="cls-1" d="M487.09,260.24c-1.23-.62-2.81-.92-2.28-2.11,.51-1.16,1.81-2.45,2.98-2.71,1.28-.28,1.1,1.45,1.19,2.39,.14,1.52-.79,2.17-1.89,2.43Z"/>
  <path class="cls-1" d="M80.53,399.53c.13-2.17-1.08-3.04-3.07-3.17,1-3.01,3.18-2.78,4.69-.99,1.22,1.44,1.22,3.67-1.63,4.16Z"/>
  <path class="cls-1" d="M416.75,373.51c.2-2,1.35-3.3,3.26-2.67,2.65,.88,1.66,3.36,1.67,5.33-2.19,.12-2.66-2.94-4.93-2.66Z"/>
  <path class="cls-1" d="M188.87,54.9c.01-2.53,.03-5.06,.04-7.59,4.54,2.56,3.69,5.08-.04,7.59Z"/>
  <path class="cls-1" d="M59.72,406c-.15,1.32-.75,2.18-2.05,1.91-1.22-.25-2.68-.59-2.64-2.26,.03-1.22,.92-1.92,2.13-1.87,1.41,.07,2.43,.73,2.56,2.22Z"/>
  <path class="cls-1" d="M442.76,117.25c-.13,.85-.26,1.69-.39,2.54-1.82,.05-2.23,1.4-2.57,2.8-2.91-1-1.97-3.49-2.14-5.55,1.7,.07,3.4,.14,5.1,.21Z"/>
  <path class="cls-1" d="M72.77,169.11c-.04,2.49-.07,4.99-.11,7.48-4.18-2.55-4.41-5.05,.11-7.48Z"/>
  <path class="cls-1" d="M302.89,26.54c.21-2.29-2.46-3.1-2.66-5.19,1.93,.19,4.38-.7,4.98,2.31,.36,1.82-.56,2.72-2.32,2.88Z"/>
  <path class="cls-1" d="M235.56,627.22c2.63,.09,5.26,.18,7.89,.27-2.75,3.35-5.39,3.65-7.89-.27Z"/>
  <path class="cls-1" d="M429.7,350.22c-.1-2.44,1.31-4.55,3.36-4.47,2.55,.1,1.63,2.75,1.61,4.51-1.63-2.91-3.31,.09-4.97-.04Z"/>
  <path class="cls-1" d="M20.99,321.83c-1.31-.56-2.3-1.43-2.79-2.8,.58-.64,1.26-1.15,2.07-1.48,1.81-.17,3.2-2.81,5.36-.92,1.12,1.74,2.37-.57,3.28,.02,1.9,1.23,2.91-3.53,4.62-.69,1.15,1.91,.93,4.17-.69,5.93-1.65,1.8-3.92,3.53-6.06,1.7-1.89-1.61-3.65-1.89-5.79-1.76Z"/>
  <path class="cls-1" d="M57.29,358.25c-1.6-.13-2.95-.52-2.91-2.54,.03-1.67,.44-2.92,2.49-2.85,2.22,.08,2.91,1.55,2.98,3.38,.06,1.63-1.11,2.1-2.56,2.01Z"/>
  <path class="cls-1" d="M54.42,334.7c.12,1.87-.75,2.76-2.62,2.5-1.04-.15-2.27-.43-1.89-1.85,.39-1.47,1.42-2.74,2.97-2.89,1.32-.13,1.46,1.18,1.54,2.25Z"/>
  <path class="cls-1" d="M79.91,380.07c-.48,1.19-1.15,2.02-2.32,1.91-1.74-.16-2.59-1.26-2.27-2.97,.22-1.15,1.11-1.76,2.31-1.38,1.24,.39,2.12,1.19,2.28,2.45Z"/>
  <path class="cls-1" d="M25.62,316.62c-2.11-.14-2.74,3.02-5.11,2.28-1.29-1.76-1.04-3.44,.29-5.05,0,0-.05,.11-.05,.11,2.08,.04,4.75-.99,4.87,2.65Z"/>
  <path class="cls-1" d="M20.8,313.86c-.1,1.68-.19,3.37-.29,5.05-.77,.04-1.54,.08-2.31,.12-.51-1.46-3-2.27-1.85-4.15,.93-1.52,2.77-1.48,4.45-1.02Z"/>
  <path class="cls-1" d="M403.62,52.79c.1,1.3-.68,1.97-1.79,2.14-.98,.15-2.25,.3-2.52-1.08-.27-1.37,1.04-1.65,1.93-2.06,1.05-.47,2.04-.41,2.38,.99Z"/>
</svg>