<?xml version="1.0" encoding="UTF-8"?>
<svg id="Layer_1" data-name="Layer 1" xmlns="http://www.w3.org/2000/svg" viewBox="0 0 598.36 715.72">
  <defs>
    <style>
      .cls-1 {
        fill: #279a47;
      }
    </style>
  </defs>
  <path class="cls-1" d="M137.21,201.88c.29-.27,.29-.55,.02-.85,1.96-5.35-.57-11.18,1.79-16.48,1.23-1.15,2.47-2.3,3.7-3.45,3.18,.05,2.92-1.72,1.88-3.73-1.26-2.41-.68-4.16,1.75-5.22,6.25-2.71,6.93-8.47,7.83-14.12,10.24-18.15,15.23-39.04,29.62-55.06,9.22-10.26,18.95-19.76,30.78-26.96,.41-.25,1.13-.45,1.18-.75,1.59-10.08,12.37-8.17,17.57-13.51,9.46-4.29,15.57-13.44,25.27-17.37,5.15-1.26,7.96-5.11,10.47-9.36,1.07-1.82,2.13-4.32,4.83-1.63,6.24,6.21,13.26,1.19,19.92,1.3,.41,0,.84-1.09,1.26-1.67,7.76,5.74,15.12-.58,22.68-.76,3-.07,4.9,1.43,6.37,3.99,3.63,6.32,8.97,9.06,16.38,7.8,2.81-.48,5.81-.59,8.63,.55,.66,.27,1.88,.68,2.04,.45,3.62-5.14,8.22-4.3,13.56-3.3,2.42,.45,4.79-.29,5.59,2.64,3.32,12.2,5.84,13.26,17.82,7.2,1.85-.6,2.55-3.71,5.28-2.53-.93,8.33,2.26,15.89,8.86,18.43,4.48,1.72,6.96-2.63,9.61-5.49,.8-.14,1.59-.27,2.39-.41,3.65,.02,4.83-2.49,4.05-5.25-1.28-4.51-4.63,1.53-6.61-.87v-.07c-.16-.83-.32-1.67-.48-2.5,2.25-5.79,10.61-4.69,12.54-11.18,.32-1.09,3.11,.08,4.17,1.57,1.14,1.62,1.18,3.13-.78,4.26-5.51,3.18-7.6,6.52-1.09,11.11,1.69,1.19,2.54,3.98-.12,5.53-2.25,1.31-5.31,1.44-3.35,5.5,1.93,4,3.5,8.21,8.48,9.05,3.07,.52,6.25,.38,9.39,.54-.34,1.33-.04,2.29,1.49,2.47,.19,.02,.58-.18,.6-.31,.13-1.4-.61-2.1-1.95-2.27-2.92-4.65-8.35-9.09-.69-14.37,4.69-3.24,6.68-.98,8.54,3.26,3.52,8.03,3.85,7.97,11.34,3.07,2.19-1.43,4.18-3.38,7.05-3.6,1.55-.12,2.81-.64,2.72-2.62-.08-1.63-2.51-4.42,.81-4.56,3.7-.16,1.57,3.81,2.62,5.69-2.45,6.01,1.36,13.17-3.47,18.74l.02,.04c-7.75,5.71,2.22,8.2,2.55,12.6,.2,2.63,2.16-.8,3.48-.87,.93,.24,1.86,.47,2.79,.71,2.16,3.95,3.42,1.35,4.06-.79,1.14-3.79,.62-7.7-.26-11.51-.54-2.34-.99-4.51,2.43-4.56,2.45-.04,5.25-.07,5.45,3.29,.19,3.07,.64,6.13-.8,9.25-1.33,2.87-2.22,5.82,3.47,4.16,4.75-1.39,9.96-1.22,14.96-1.75-2.33,2.56-2.6,4.89,1.39,5.57,3.24,.55,4.19,1.68,1.54,3.86-4.78,3.92-3.95,9.56-5.79,15.1,7.94-.32,13.17-7.49,20.76-5.89,2.36-9.47,5.13-2.69,8.79-.7,5.16,2.8,3.17-3.77,5.35-5.23,1.18-.15,2.33-.33,2.89-1.6,1.03,.15,2.06,.3,3.09,.45,3.11,3.89,7.63,.18,11.11,2.07,.16,1.74,.32,3.48,.48,5.22-.28,.25-.39,.56-.31,.93-2.67,0-5.34-.5-7.21-2.42-2.75-2.81-4.06-.52-5.67,1.17-1.22,.17-2.52,.22-2.86,1.8-.5,.48-1,.96-1.5,1.45,0,0,.02-.03,.02-.03-8.26,1.19-10.47,3.75-12.22,14.16,1.96,.47,4.19,.64,5.56-.72,2.25-2.24-3.18-3.62-.91-6.51,4.52,.24,7.38,2.06,7.94,7.19,.42,3.86,1.99,7.18,7,6.31l1.43-.16c2.66,.68,6.55-1.98,7.86,1.24,1.15,2.82-2.69,3.16-4.68,4.19-1-.02-2-.05-3.01-.07-1.07-.46-2.88-1.06-3.1-.15-.25,1.04,.96,2.44,1.54,3.68l-.19,.15c-3.88-.25-6.71,.62-10.21,3.43-4.62,3.7-5.55,4.87,.27,6.98,3.61,1.31,3.06,3.76,2.26,6.45-2.93,2.58-6.14,4.51-10.34,3.94q1.98,8.21-3.82,14.5c-.71,.77-.51,1.8,.18,2.65-.12,4.14-.24,8.28-.36,12.43-.47,.67-.95,1.34-1.42,2.01,0,0,.07-.1,.07-.09-.48,.54-.97,1.09-1.45,1.63,0,0,.03-.06,.03-.06-1.01,.58-1.2,1.17-.02,1.77,0,0-.04-.02-.04-.02,.04,1.89,1.09,2.83,2.89,3.05,0,0-.04-.05-.04-.05,3.79,5.31,1.79,9.21-2.76,12.88-2.42,1.95-5.35,4.92-.02,6.83,7.32,2.63,8.09,4.42,3.95,11.87-3.09,.67-4.62,3.02-4.76,5.76-.24,4.8-.59,9.01-6.16,10.94-2.38,.82-1.45,3.23-.36,4.99,2.68,4.31,1.38,7.83-2.13,10.94-4.19,3.72-6.46,8.6-7.32,13.93-.65,4.03-1.23,7.56-5.59,9.25-.88,.34-2.08,2.17-1.83,2.78,2.71,6.54-2.74,9.78-5.69,13.72-7.12,9.5-14.14,19.02-20.19,29.26-4.09,6.91-10.01,12.39-15.51,18.17-11.12,11.68-19.33,23.71-16.61,41.84,2.32,15.46,.82,31.54,.52,47.34-.32,17.06,.45,33.99,3.86,50.74,1.2,5.87-.44,11.6-.79,17.39-.88,14.6,.61,29.12,1.28,43.68,1.21,26.46-2.5,52.87-1.6,79.35,.13,3.88,.04,7.77,.05,11.66-1.47,2.46-.74,5.19-.95,7.8-1.19,14.91,1.44,29.96-1.67,44.79-1.15,5.5-5.64,8.05-10.48,5.89-3.84-1.71-2.47-5.97-4.11-8.76-.11-2.83-.22-5.65-.33-8.48,.06-13.82,.13-27.65,.17-41.47,.01-3.96-1.13-7.64-2.98-11.12,2.19-10.33,1.22-20.72,1.12-31.16-.25-24.9-5.44-49.49-4.07-74.48,2.21-40.26,.11-80.53-.29-120.8-.03-2.9-.23-5.82-.73-8.67-1.2-6.86-2.16-7.22-7.77-2.97-1.07,.81-1.98,1.47-3.19,.93-8.19-3.63-9.67,4.59-13.95,7.85-.1,1-.2,2-.31,3-.24,1.51-.48,3.01-.72,4.51-1.45,2.93-1.53,6.07-1.52,9.24,.02,8.25,.01,16.51-.01,24.76,0,3.35-.58,6.41-4.66,7.08-3.86,.63-7.17,.06-9.39-3.73-1.57-2.68-1.55-5.57-1.66-8.46-.36-9.45-.88-18.9-.9-28.35,0-4.7-1.6-6.22-6.35-6.39-5.53-.21-10.43,1.76-15.61,2.8-1.28-1.59-2.85-2.97-4.97-2.24-16.16,5.57-31.53,.33-46.94-3.5-12.25-3.05-23.95-8.27-36.75-9.26-1.84-.14-3.7-1.19-5.38-2.13-9.27-5.2-18.37-10.4-28.87-13.29-7.56-2.08-11.08-10.46-16.96-15.43-15.21-12.89-27.58-28.92-44.95-39.52-6.96-4.25-12.22-10.93-13.52-19.63-.32-2.14-1.75-3.51-2.96-4.9-3.93-4.53-5.5-9.91-6.38-15.63-.95-4-2.55-7.69-5.2-10.87,.11-.35,.02-.63-.27-.85-.03-2.41-1.37-4.1-3.09-5.58,0,0-.11-.15-.11-.15-2.71-4.28,.24-9.53-2.36-13.83,.15-.34,.09-.64-.16-.91,.26-3.78-1.27-7.03-3.06-10.19-.05-.51-.1-1.01-.16-1.52,2.2-5.98,5.65-11.95,.13-17.99-.11-.12-.04-.51,.07-.7,4.04-6.81-.79-16.06,6.07-22.09Z"/>
  <path class="cls-1" d="M107.84,612c-5.33-5.87-13.45-6.88-19.74-11.18-1.74-1.19-3.86-1.15-3.9-3.97-.06-5.36-3.34-7.08-8.17-6.86-.09-5.85-7.36-5.19-8.85-9.76-3.6,4.39-8.02,.25-11.96,1.14,0,0,.03,.03,.03,.03-.17-.49-.34-.98-.52-1.47,.22-.4,.38-.83,.48-1.28,2.57-.26,3.23-1.86,2.69-4.08-.52-2.14-2.02-3.41-4.22-3.16-3.36,.38-5.61-1.25-5.42-4.26,.61-9.7-1.1-19.61,3.87-28.94,4.12-7.73,3.08-8.83-5.72-9.35-1.2-3.74,1.21-8.57-4.1-11.19-1.77-.87,.13-2.94,1.75-3.71,6.5-3.1,9.22-7.02,3.24-13.23-1.46-1.52-1.56-3.59-.43-5.39,.43-.69,1.56-1.39,2.31-1.33,2.75,.21,2.11,2.76,2.67,4.44,.69,2.07-.22,5.41,3.72,4.82,3.01-.46,3.31-3.29,2.62-5.08-2.78-7.17,5.65-10.08,5.69-16.04,1.54-2.06,2.16-5.19,5.33-5.47,3.54-.31,3.54-2.64,3.3-5.14-.32-3.35,1.7-5.18,3.88-7.28,6.29-6.07,6.46-15.06,.68-20.05-.56-2.18-1.97-3.17-4.2-3.06-.1-1.54-.21-3.08-.31-4.62,1.08-.1,2.16-.19,3.24-.29,3.47,2.39,7.16,6.97,10.34,6.63,4.11-.43,3.27-7.29,6.15-10.53,.58-.66,.68-1.75,1.01-2.64,0,0-.04,.05-.04,.05,1.7-.34,2.73-1.22,2.54-3.1,1.05-1,2.1-2,3.14-3,1.98,.09,2.85-.96,2.91-2.84,.29-.3,.37-.64,.24-1.04,1.49-1.9,.71-5.76,5.28-4.99,3.42,.57,5.22-2.41,6.58-5.23l-.4-.25s.4,.26,.39,.26c2.14-.1,3.58-1.27,4.63-3.03,5.35-1.83,9.46-5.83,14.33-8.38,9.42-4.93,20.31-3.98,30.39-6.5,4.22-1.05,7.35,2.93,11.18,4.22,11.22,3.79,23.21,4.25,34.22,8.85,19.6,8.19,28.57,25.73,39.06,42.34,11.61,18.37,5.58,37.44,4.24,56.48-.65,9.2-2.64,18.33-4.92,26.99-2.27,8.61-5.14,17.58-9.65,25.59-4.13,7.33-6.87,14.92-6.69,23.46,.07,3.48-.52,7.34-4.27,8.54-3.47,1.11-6.56-1.02-8.9-3.65-3.17-3.56-5.55-8.2-11.83-5.18-6.31,3.03-8.63,7.42-8.14,14.5,.57,8.21-.09,16.51-.39,24.76-.6,16.06-.34,32.08,1.25,48.08,.44,4.47,.69,9.36-5.21,10.36-6.02,1.02-7.01-4.14-8.29-8.21-3.19-10.11-3.84-20.61-3-31.03,.74-9.31-1.79-17.77-4.43-26.36-1.53-4.98-5.36-4.68-8.83-3.28-4.63,1.88-9.37,2.39-14.21,2.81-3.32-.45-6.26,.46-8.9,2.48,0,0,.01-.05,.02-.05-2.06,.08-4.23-.22-5.7,1.77-.93,.26-1.85,.53-2.78,.79-9.67-1.91-19.98,.91-29.25-3.94Z"/>
  <path class="cls-1" d="M551.79,142.76c1.99-1.03,5.83-1.37,4.68-4.2-1.31-3.22-5.2-.56-7.86-1.24,1.12-5.36-1.81-9.32-4.56-14.63-2.65,6.66-1.07,11.03,3.13,14.78-5.01,.88-6.57-2.44-7-6.31-.56-5.13-3.42-6.95-7.94-7.19-2.27,2.89,3.16,4.28,.91,6.51-1.37,1.36-3.6,1.19-5.56,.72,1.75-10.41,3.96-12.98,12.22-14.16,.26,1.77-.48,4.28,2.79,3.82,.71-.1,1.38-.52,2.1-.6,10.93-1.17,11.68-.73,15.54,8.96-4.17,1.73-2.67,3.6-.09,5.39,1.81,1.26,4.2,2.61,5.34-.17,1.59-3.88-3.15-3.15-4.46-5.04,2.52-1.54,6.99,1.4,8.05-3.51h-.01c2.38-1.68,2.55-4.38,3.31-6.87,.56-1.83,2.15-3.87,3.83-3.69,2.66,.28,1.12,3.05,1.59,4.69-1.06,.19-2.3,.2-2.18,1.79,.01,.17,.29,.44,.45,.46,1.6,.12,1.59-1.13,1.8-2.18h5.6c-.31,3.44-4.05,4.29-4.86,7.65,2.69,1.98,9.75-.28,7.95,6.88-1.05,.21-2.29,.21-2.15,1.8,.01,.17,.29,.44,.45,.45,1.58,.11,1.6-1.1,1.78-2.17,4.29,.84,2.46,7.52,7.59,7.71,2.6-1.43-.29-5.21,3.24-7.12,1.29,5.91,2.14,11.17-4.72,13.81-4.28,1.65-5.23,5.55-6.29,9-2.3,7.5-6.9,10.34-14.46,8.68h0c.05-1.02,.1-2.04,.14-3.05,6.88,2.78,7.48,2.37,9.3-7.19-3.58,2.46-10.33-.83-9.28,7.19-1.12-.15-2.7-2.07-2.75-1.35-.41,6.23-7.51,6.45-9.63,11.27-1.41,3.21-5.17,2.51-7.49,.85-2.47-1.77-3.74-1.69-4.97,.95-.2,.15-.41,.29-.61,.44-.45-1.48-.9-2.96-1.35-4.44l.53-.46c1.27-.04,2.41-.42,2.6-1.84,1.09-8.11-5.52-3.73-8.52-5.22-.21-.23-.42-.47-.62-.71,.8-2.69,1.35-5.14-2.26-6.45-5.82-2.11-4.89-3.28-.27-6.98,3.5-2.81,6.33-3.67,10.21-3.43-3.08,2.52-6.17,5.04-9.66,7.9,4.07,.8,6.22,3.43,8.81,5.55,4.28,3.51,5.47-1.89,8.08-3.25,1.24,2.33,2.48,4.66,3.93,7.37,1.83-3.15,3.23-5.55,4.62-7.95,.48,.7,.96,1.39,1.44,2.09,.55-4.07,5.39-1.86,7.58-4.95-4.11-1.18-7.38-2.33-9.02,2.53-1.12-1.41-1.66-3.46-3.94-3.6,3.67-7.69-1.48-8.67-7.08-9.31Zm17.75,3.32c5.13,1.39,4.75-2.36,5.09-5.44,4.93,2.3,4.59,5.46,.98,8.49-1.99,1.67-.76,2.97-.33,4.39,.42,1.39,1.85,1.72,2.97,1.36,3.61-1.16,7.44-4.28,7.55-6.97,.21-5.21-6.8-6.88-8.5-11.9-.59-1.74-2.82-1.72-4.32-.55-.65,.51-.79,1.65-1.16,2.51-2.83-.18-6.72-1.35-3.25,3.89,.72,1.09,.59,2.74,.84,4.13-2.17,1.66-3.65-3.92-5.84-.6-.61,.93-.38,2.48,.76,3.13,2.76,1.58,4.36,.26,5.21-2.45Z"/>
  <path class="cls-1" d="M469.57,84.74c4.83-5.57,1.02-12.73,3.47-18.74,3.27,3.23,8.07,5.99,3.14,11.55-.74,.83-.74,2.4,.3,3.32,.91,.81,1.72,.04,2.48-.57,3.45-2.73,8.12,.24,11.73-2.66,1.83-1.46,2.31,.67,2.39,2.1,.12,2.17,.04,4.36,.06,6.54,.07,8.13,2.17,9.38,9.36,5.6,1.43-.75,2.93-1.34,4.51-2.06-1.61-3.73-7.45,.2-7.89-4.72-.18-2.03-1.05-4.47,1.8-5.6-1.65,4.45,1.78,5.24,4.63,6.5,1.23,.54,2.67,.69,3.18-.5,1.33-3.12-2.45-3.63-3.27-5.72,6.33,.79,12.65,1.64,18.99,2.32,2.22,.24,4.56,1.38,3.35,3.29-1.75,2.77-1.17,7.41-5.71,8.12-.5,.08-1.4-.49-1.63-.98-.73-1.57,4.72-5.34-1.79-4.9-4,.27-8.28-.04-9.05,5.59-.11,.77-1.24,1.4-1.9,2.09-5,.52-10.21,.36-14.96,1.75-5.69,1.66-4.8-1.28-3.47-4.16,1.44-3.11,.99-6.18,.8-9.25-.21-3.37-3.01-3.33-5.45-3.29-3.43,.05-2.97,2.22-2.43,4.56,.88,3.8,1.4,7.72,.26,11.51-.65,2.14-1.9,4.74-4.06,.79,2.91-4.93,2.4-8.34-3.92-9.7-1.76-.38-3.29-1.83-4.93-2.78Z"/>
  <path class="cls-1" d="M353.02,412.1c5.17-1.04,10.08-3,15.61-2.8,4.75,.18,6.34,1.69,6.35,6.39,.02,9.45,.54,18.9,.9,28.35,.11,2.89,.09,5.77,1.66,8.46,2.21,3.79,5.53,4.36,9.39,3.73,4.08-.67,4.65-3.73,4.66-7.08,.02-8.25,.03-16.51,.01-24.76,0-3.17,.07-6.32,1.52-9.24,1.8,12.32,.57,24.71,.64,37.07,.02,4.12-2.98,6.3-7.23,6.62-4.2,.31-9.5-1.92-11.18,4.75-.27,1.09-2.09,1.06-3.25,.46-1.84-.95-2.86-13.15-1-14.01,3.49-1.61,2.91-4.97,2.12-6.89-2.29-5.6-1.87-11.75-4.2-17.22-.68-1.59-1.23-3.08-1.37-4.82-.69-8.72-1.21-9.11-9.76-6.74-2.46,.68-4.34,.86-4.87-2.27Zm18.93,6.69c-1.26,.16-1.33,1.14-1.34,2.07,0,.94,.05,2.05,1.31,2.06,1.27,.02,1.33-1.1,1.33-2.03,0-.92-.03-1.92-1.3-2.1Z"/>
  <path class="cls-1" d="M74.66,123.04c-5.69-.28-8.25-6.03-13.15-7.74-.21-.07-.17-1.92,.28-2.58,.72-1.05,1.7-.33,2.4,.34,1.6,1.54,3.6,1.19,5.5,1.17,2.44-.03,5.38,0,5.52-3.25,.16-3.39-3.06-2-4.86-2.71-4.47-1.76-8.33-3.26-4.4-9.76,2.31-3.82,1.91-9.43,8.67-7.1,3.7,1.28,7.25,10.37,5.38,13.92-1.1,2.08-2.52,4.22,.18,5.45,2.64,1.21,3.73,1.4,1.97,4.82-1.82,3.53-2.41,7.42-7.5,7.46Z"/>
  <path class="cls-1" d="M137.21,201.88c-6.86,6.03-2.03,15.28-6.07,22.09-.11,.19-.18,.58-.07,.7,5.52,6.05,2.07,12.01-.13,17.99-.97-1.45-1.94-2.91-2.91-4.36-1.19-3.45,1.4-8.89-5.05-9.56-.24-.23-.48-.47-.72-.7,.61-3.57-1.54-6.22-3.84-8.01-2.87-2.23-3.2-4.25-1.87-7.29,1.45-3.32,3.95-2.67,6.61-2.25,1.63,.26,3.33,.09,5,.11,.14,.93,.13,2.01,1.37,2.18,.24,.03,.84-.56,.81-.81-.14-1.25-1.21-1.26-2.15-1.4,1.96-3.98,4.71-7.15,9.02-8.7Z"/>
  <path class="cls-1" d="M401.99,10.81c1.89,1.58,6.28-2.04,6.45,3.15,.15,4.61-3.33,3.67-5.98,3.97-2.01,.23-2.73,1.64-3.25,3.29-4.39,4.33-2.47,12.27,3.45,14.27-.22,1.61,.66,3.75-1.13,4.62-1.57,.77-2.46-1.18-3.46-2.09-6.04-5.45-5.04-13.49-6.81-20.38-1.06-4.11-1.9-6.16-6.21-5.65-3.5,.41-7.48-.96-7.41-4.01,.07-3.12,3.15-5.46,7.33-2.6,1.59,1.09,2.47-1.52,3.25-3.02,1.68-3.22,4.96-2.58,6.97-1.42,2.89,1.68,1.44,3.99-.71,5.8-2.34,1.96-2.61,4,.2,5.86-.49,1.04-.98,2.07-1.46,3.11,2.75-.11,5.64,.25,8.21-.49,2.08-.6,.91-2.84,.56-4.43Z"/>
  <path class="cls-1" d="M77.08,444.21c5.79,4.99,5.62,13.98-.68,20.05-2.18,2.1-4.21,3.94-3.88,7.28,.24,2.5,.24,4.83-3.3,5.14-3.17,.28-3.78,3.4-5.33,5.47-1.93,0-3.85,.02-5.78,.02,0,0-.02-.02-.02-.02,.65-2.19-3.57-3.28-1.41-5.67,2.49-2.76,5.16-5.98,7.97-7.67,3.14-1.88,.97,3.64,3.71,5.16,1.94-6.1,2.81-12.95,10.42-16.53-6.47-1.92-6.88-8.32-11.79-11.66,3.5-2.63,6.99-.99,10.09-1.57Z"/>
  <path class="cls-1" d="M411.27,52.88c.16,.83,.32,1.67,.48,2.5-3.23,2.63-7.48,3.08-11.04,5.87,3.74,.24,7.48,.49,11.22,.73-2.66,2.86-5.13,7.22-9.61,5.49-6.6-2.54-9.79-10.1-8.86-18.43-2.73-1.18-3.43,1.93-5.28,2.53-.46-3.63,1.05-6.33,4.53-7.1,2.87-.63,6.47-1.47,7.24,3.3,.08,.5,1.27,1.3,1.35,1.24,5.69-4.76,7.75-.23,9.99,3.85Z"/>
  <path class="cls-1" d="M526.18,236.56c4.14-7.45,3.37-9.25-3.95-11.87-5.34-1.92-2.4-4.88,.02-6.83,4.55-3.67,6.55-7.57,2.76-12.88,.7,.14,2.02,.23,2.03,.41,.45,6.39,3.65,7.62,9.22,5.36,1.24-.5,3.39,.3,3.24,2.01-.36,4.02,2.94,6.96,3.32,10.63-2.94,1.85-4.11-1.32-6.33-1.19-3.73,.22-6.05,.39-4.6,5.4,1.28,4.41,.85,8.96-5.72,8.96Z"/>
  <path class="cls-1" d="M426.15,698c1.64,2.8,.27,7.05,4.11,8.76,4.84,2.16,9.33-.39,10.48-5.89,3.11-14.83,.48-29.88,1.67-44.79,.21-2.61-.52-5.34,.95-7.8,.04,18.65,.16,37.3,.1,55.94-.02,6.48-5.04,11.93-10.38,11.46-7.05-.62-7.25-5.83-7.11-11.16,.06-2.18,.12-4.35,.19-6.53Z"/>
  <path class="cls-1" d="M525.28,44.15c5.9,.42,12.29-1.58,17.25,3.43,1.33,1.34,3.27,2.52,2.87,4.75-.52,2.87-2.84,.51-4.12,1.18-4.63,2.39-9.64,4.41-11.75,10.58,1.29-7.51-8.35-12.06-4.23-19.95,0,0-.01,.01-.01,.01Z"/>
  <path class="cls-1" d="M46.43,528.86c8.79,.51,9.84,1.61,5.72,9.35-4.97,9.33-3.26,19.24-3.87,28.94-.19,3,2.07,4.63,5.42,4.26,2.2-.25,3.7,1.02,4.22,3.16,.54,2.23-.12,3.82-2.69,4.08-.7-.95-.1-4.97-1.78-2.6-2.67,3.76-5.24-.31-7.64,1.36-1.91,1.33-2.6-1.15-2.01-2.28,3.14-6.01,.47-12.44,1.36-18.03,.91-5.72-.94-12.54,3.46-18.01,1.01-1.25,6.93-7.08-1.86-7.48-.15,0-.22-1.79-.33-2.74Z"/>
  <path class="cls-1" d="M423.01,636.93c1.85,3.48,2.99,7.16,2.98,11.12-.04,13.82-.11,27.65-.17,41.47-2.52-.45-2.7-2.31-2.73-4.37-.13-12.92-.33-25.85-.41-38.77,0-1.25,.23-2.69-1.02-3.15-8.55-3.12-2.86-9.18-4.51-14.93,4.79,2.45,.83,8.06,5.86,8.62Z"/>
  <path class="cls-1" d="M350.2,18.7c-4.17,2.28-1.7,10.63-7.08,9.75-2.77-.45-10.16,.64-10.47-6.38-.17-3.88,7.16-10.27,11.7-9.83,3.45,.34,4.16,3.56,5.85,6.46Z"/>
  <path class="cls-1" d="M111.93,157.22c4.47,.79,5.66,4.07,4.07,7.46-1.7,3.64-5.07,2.34-8.02,.85-10.25-5.19-10.19-6.14-6.85-14.5,2.61-6.54,5.01-4.89,8.51-1.46-1.27,1.85-4.22,2.98-3.15,5.87,.95,2.58,3.26,2.3,5.45,1.77Z"/>
  <path class="cls-1" d="M11.27,547.52c-.7,2.42,2.32,8.08-4.45,7.5-5.67-.49-6.53-5.92-6.8-9.96-.26-3.95,1.42-9.95,5.86-9.7,6.14,.35,5.7,6.52,5.38,12.16Z"/>
  <path class="cls-1" d="M547.31,175.46c2.4,2.25,4.05,5.31,7.7,6.15,3.37,.78,2.18,3.8,2.32,6.03,.13,2.11-.21,3.94-3.2,3.15-2.58-.68-2.29,1.78-3.09,3.06-1.49,2.4-3.56,4.58-6.43,3.14-3.26-1.64-2.66-6.64-1.43-7.51,5.29-3.73,1.77-7.02,.41-10.53,4.14,2.16,3.18-.89,3.1-3.05,.2-.15,.41-.3,.61-.44Z"/>
  <path class="cls-1" d="M552.55,205.48c-2.06,1.52-3.04,1.63-3.47,.49-.55-1.44-.31-2.94,1-3.95,1.21-.93,2.16-3.33,4.12-1.7,2.61,2.17,5.72,.78,8.3,1.68,2.44,.86,4.42-5.19,6.28-.33,.98,2.56-5.49,11.25-8.28,11.69-3.61,.57-6.33-.12-6.03-4.76,.13-2.03-.15-4.09-1.92-3.12Z"/>
  <path class="cls-1" d="M525.35,184.31c-.69-.84-.88-1.88-.18-2.65q5.78-6.3,3.82-14.5c4.2,.57,7.41-1.36,10.34-3.94,.2,.24,.41,.47,.62,.71-.57,4.49,6.87,2.26,5.93,7.06,0,0-.53,.46-.53,.46-1.26-1.08-2.63-2.55-4.33-1.41-1.75,1.17-.3,3.04-.33,4.61-1.4,.83-4.41,.5-4.22,1.99,.59,4.87-2.26,4.59-5.53,4.96-1.94,.22-3.73,1.76-5.59,2.71Z"/>
  <path class="cls-1" d="M122.6,239.46c-2.03,.11-4.07,.22-6.1,.33-.97-4.1-3.46-2.48-5.39-1.17-1.55,1.05-1.73,2.86-.37,4.42,2.18,2.52,3.79,.53,5.48-.75-.5,3.62,2.41,6.14,3.03,9.35,.38,1.95,.93,4.75-2.1,5.34-3.09,.61-3.65-1.74-3.48-4.08,.23-3.14-2.02-4.75-3.76-6.66-3.84-4.21-3.02-9.02,1.3-10.85,4.36-1.84,7.14-5.3,11.05-7.35,.24,.23,.48,.47,.72,.7-1.26,3.53-2.54,7.07-.38,10.72Z"/>
  <path class="cls-1" d="M582.25,172.79c2.68,4.7,.44,9.25,2.2,13.67,6.07-8.34,7.5,1.18,11.59,2.14-5.7,6.44-12.4,4.65-16.47,.68-5.14-5-.2-10.66,2.68-16.49Z"/>
  <path class="cls-1" d="M31.89,540.89c-.31-3.59,3.5-2.64,5.22-4.73-3.73-2.83-7.89-1.18-11.68-1.36-2.95-.14-5.16-.98-6.81-3.32-1.2-1.7,.36-2.59,1.26-3.62,2.36-2.69,4.29-1.19,6.93,.04,3.58,1.68,6.85,4.3,11.3,4.24,2.4-.03,4.38,2.21,4.95,4.63,.53,2.28-1.46,3.33-3.29,4.15-2.63-.01-5.25-.02-7.88-.04Z"/>
  <path class="cls-1" d="M81.32,613.63c2.25,7.89-7.09,4.27-9.06,8.49-.25,.53-6.03-2.34-4.83-3.33,3.77-3.13-.79-11.97,8.18-11.19,4.18,.36,6.53,1.23,5.7,6.03Z"/>
  <path class="cls-1" d="M592.05,111.67c3.22,3.51-6.06,6.03-.42,9.8-.49,.43-.94,1.14-1.49,1.24-1.56,.27-3.35-.23-3.21-1.95,.39-4.94-2.39-6.66-6.54-7.59-1.41-.32-2.63-1.41-2.08-3.22,.43-1.43,1.82-1.73,2.94-1.46,4.68,1.14,5.93-.93,5.45-5.22-.25-2.29,1.03-4.09,3.42-3.32,3.31,1.07,.04,2.13-.16,3.32-.52,3.05,4.63,4.64,2.09,8.41Z"/>
  <path class="cls-1" d="M441.81,29.85c-1.69-4.27-1.59-7.56-3.43-10.62-2.88-4.8,1.21-12.86,6.48-15,1.26-.51,2.34-.69,3.29,.3,1.51,1.57,2.03,4.73,.97,5.28-7.6,4-4.1,11.35-5.7,17.1-.18,.63-.64,1.18-1.61,2.93Z"/>
  <path class="cls-1" d="M154.18,158.03c-.9,5.65-1.58,11.41-7.83,14.12-2.43,1.06-3.01,2.8-1.75,5.22,1.05,2.01,1.3,3.78-1.88,3.73-.49-3.17-3-2.64-5.09-2.68-3.55-.07-3.6-2.43-3.58-5.01,.02-3.37,1.83-2.66,4.31-2.62,4.89,.08,10.12,.23,11.05-7.05,.22-1.69,1.48-5.25,4.77-5.7Z"/>
  <path class="cls-1" d="M473.23,54.09c11.2-1.51,15.74,1.93,14.08,10.16-.6,2.99-2.4,3.24-4.69,3.2-2.22-.04-5.56-.47-4.73-2.95,1.75-5.26-3.04-6.97-4.66-10.41Z"/>
  <path class="cls-1" d="M107.84,612c9.27,4.85,19.58,2.03,29.25,3.94-.25,1.77-.84,3.75-2.93,3.3-6.86-1.47-14.16,1.51-20.66-1.62-3.28-1.58-4.52,2.94-7.75,.81-.55-2.15,2.95-3.79,2.09-6.43Z"/>
  <path class="cls-1" d="M258.61,44.39c-9.7,3.93-15.82,13.08-25.27,17.37,1.88-4.46,4.98-8.24,7.24-12.52,3.57-6.77,11.83-3.55,18.04-4.85Z"/>
  <path class="cls-1" d="M126.58,117.21c1.55,.31,5.28-.93,3.6,3.83-.95,2.69,3.9,8.23-3.61,7.7-4.9-.35-8.76-3.89-8.95-7.9-.18-3.92,4.78-3.78,8.96-3.62Z"/>
  <path class="cls-1" d="M96.63,418.5c-4.17,3.75-7.7,7.75-13.21,8.67-1.6,.27-2.81,3.16-4.85,.86-1.05-1.19-3.53-2.15-2.45-3.98,1.3-2.19,4.88-5.62,5.14-5.43,5.19,3.9,10.22-.48,15.36-.12Z"/>
  <path class="cls-1" d="M166.04,68.87c.87-2.08,.33-6.99,1.58-5.9,3.13,2.73,9.86-1.34,10.17,5.69,.26,5.98-5.36,6.4-8.29,6.98-5.16,1.01-2.51-4.27-3.47-6.77Z"/>
  <path class="cls-1" d="M55.23,581.36c3.94-.89,8.35,3.25,11.96-1.14,1.49,4.57,8.76,3.91,8.85,9.76-5.67-2.42-11.27-4.96-17.18-.38-.96,.74-3.85,.22-2.56-1.31,2.72-3.26-1.59-4.57-1.06-6.93Z"/>
  <path class="cls-1" d="M137.86,303.72c-1.42-7.14-3.39-5.27-5.73,.62-1.87-8.08,2.09-12.53,6.81-18.9,.21,7.16,5.89,12.18-1.08,18.29Z"/>
  <path class="cls-1" d="M458,51.59c4.84,2.13,4.08,5.77,2.26,9.37-2.18,4.29-5.17,2.97-8.09,.72,1.48-3.63-2.21-10.26,5.84-10.09Z"/>
  <path class="cls-1" d="M93.35,93.73c-3.28-1.69-5.22,4.85-8.21,1.72-2.49-2.61,1.5-4.56,2.06-6.98,.53-2.29-.8-6.87,3.11-5.8,3.19,.87,8.55,1.01,8.77,6.66-.25,.23-.5,.46-.74,.69-.64-.33-1.29-.65-1.93-.99-1.55-.83-2.82-3.56-4.82-1.61-1.74,1.7,.98,2.77,1.49,4.21,.23,.65,.18,1.4,.26,2.11Z"/>
  <path class="cls-1" d="M458,51.59c-8.05-.17-4.36,6.46-5.84,10.09-3.59-1.39-4.02-6.1-7.73-7.35,1.89-3.04,4.02-6.12,7.57-7.04,3.11-.8,6.57-.68,6,4.31Z"/>
  <path class="cls-1" d="M139.02,184.55c-2.36,5.3,.17,11.13-1.79,16.48-.5-3.94-1.57-7-6.19-3.48-1.51,1.15-3.02,1.62-4.55,.57-.61-.42-.96-1.66-.93-2.5,.08-2.26,1.9-2.68,3.59-2.49,6.5,.74,4.78-7.82,9.87-8.58Z"/>
  <path class="cls-1" d="M93.3,429.72c-.32,.89-.42,1.98-1.01,2.64-2.88,3.24-2.04,10.1-6.15,10.53-3.18,.33-6.87-4.24-10.34-6.63,2.07-.53,4.11-6.43,6.25,.4,.88,2.82,3.95,2.36,5.1-.78,1.13-3.08,2.61-5.57,6.14-6.15Z"/>
  <path class="cls-1" d="M402.66,35.49c-5.92-1.99-7.84-9.94-3.45-14.27,0,0,.09-.04,.1-.04-.08,6.03,3.64,8.25,8.93,8.9-.08,3.64-3.67,3.66-5.58,5.41Z"/>
  <path class="cls-1" d="M508.48,29.61c1.55,2.23,6.44,1.79,6.02,6.13-.22,2.23-.54,5.78-4.42,5.39-6.7-.67-.84-7.2-4.34-9.75-.96-.7,.95-1.63,2.73-1.77Z"/>
  <path class="cls-1" d="M113.96,409.56c-1.36,2.82-3.16,5.8-6.58,5.23-4.57-.77-3.79,3.09-5.28,4.99,1.36-3.71-5.99-5.18-2.59-9.11,3.04-3.51,6.47-.39,9.8,.09,1.28,.19,2.78-1.82,4.65-1.2Z"/>
  <path class="cls-1" d="M11.66,596.2c3.63,.87,3.25,4.78,4.32,7.27,.64,1.48-1.9,3.84-4.19,3.95-4.31,.2-3.21-3.3-3.26-5.69-.05-2.22-.77-5.07,3.13-5.53Z"/>
  <path class="cls-1" d="M29.52,579.87c-1.5,5.1-2.09,8.4,2.27,9.83,1.22,.4,2.89,1.43,1.18,3.11-1.05,1.03-2.35,1.31-3.9,.44-6.71-3.75-7.03-6.41,.45-13.38Z"/>
  <path class="cls-1" d="M122.6,239.46c-2.16-3.66-.87-7.19,.38-10.72,6.45,.67,3.86,6.12,5.05,9.57-.92,.51-1.84,1.02-2.76,1.53-.89-.11-1.79-.22-2.68-.33v-.03Z"/>
  <path class="cls-1" d="M111.93,157.22c-2.19,.53-4.5,.81-5.45-1.77-1.07-2.89,1.88-4.02,3.15-5.87,2.08,0,5.11-1.89,6.01,.31,1.22,2.99-2.69,4.71-3.71,7.33Z"/>
  <path class="cls-1" d="M99.08,89.32c.64,.33,1.42,1.07,1.9,.91,10.96-3.67,5.66,4.33,6.01,8.7-2.15-3.79-5.86-1.84-8.64-2.99,0-1.98,0-3.96,0-5.93,.25-.23,.49-.46,.74-.69Z"/>
  <path class="cls-1" d="M519.44,35.39c-2.09-5.11,2.47-4.36,4.67-4.71,4.3-.7,4.31,2.38,3.81,5.47-2.96,1.28-5.5-2.21-8.48-.76Z"/>
  <path class="cls-1" d="M98.34,90.01c0,1.98,0,3.96,0,5.93,0,0,.05,.2,.05,.2-1.66,0-3.31,0-4.97,0-.03-.81-.06-1.61-.09-2.42-.08-.71-.03-1.46-.26-2.11-.51-1.44-3.23-2.52-1.49-4.21,2-1.95,3.28,.78,4.82,1.61,.64,.34,1.28,.66,1.93,.99Z"/>
  <path class="cls-1" d="M556.86,108.93c-3.48-1.89-8.01,1.82-11.11-2.07,0-2.42,.02-4.83,.02-7.25,.91-.64,.99-1.53,.77-2.51,1.38,.3,2.14,1.26,2.01,2.57-.42,4.34,1.37,6.23,5.78,5.94,2.13-.14,2.98,1.23,2.52,3.33Z"/>
  <path class="cls-1" d="M31.89,540.89c2.63,.01,5.26,.02,7.88,.04,.75,4.14-1.76,4.89-4.97,4.55-2.68-.28-4.63-1.35-2.91-4.58Z"/>
  <path class="cls-1" d="M52.7,616.53c2.75-.34,4.34,1.14,4.74,3.46,.46,2.61-1.88,3.28-3.7,3.27-2.23-.02-4.23-1.08-4.24-3.87-.01-2.19,1.36-2.87,3.2-2.85Z"/>
  <path class="cls-1" d="M401.99,10.81c.35,1.58,1.52,3.83-.56,4.43-2.57,.74-5.46,.38-8.21,.49,.49-1.04,.97-2.08,1.46-3.11,2.59,0,4.37-3.25,7.31-1.8Z"/>
  <path class="cls-1" d="M561.04,129.41c1.3,1.9,6.05,1.17,4.46,5.04-1.14,2.78-3.54,1.43-5.34,.17-2.58-1.8-4.08-3.67,.09-5.39,.24,.19,.51,.24,.8,.18Z"/>
  <path class="cls-1" d="M540.7,174.65c.03-1.56-1.42-3.44,.33-4.61,1.7-1.13,3.07,.33,4.33,1.41,.45,1.48,.9,2.96,1.35,4.44,.08,2.15,1.04,5.2-3.11,3.05,.01-.28-.1-.48-.36-.6-.07-1.75-.6-3.14-2.62-3.37l.07-.32Z"/>
  <path class="cls-1" d="M38.86,552.52c2.72,3.09,1.22,6.63,3.42,9.3,1.32,1.6-1.22,3.73-2.96,3.99-1.94,.29-1.74-1.94-1.67-3.27,.16-3.06-.64-6.24,1.2-10.01Z"/>
  <path class="cls-1" d="M546.55,97.1c.21,.98,.13,1.87-.77,2.51-.93-.14-1.87-.27-2.8-.41-1.77-.28-3.67,2.19-5.22,.11-1.11-1.49,.67-2.46,1.48-3.55,1.99-2.71,3.7-.69,5.48,.26,.63,.34,1.23,.72,1.84,1.09Z"/>
  <path class="cls-1" d="M505.47,79.77c.82,2.09,4.6,2.6,3.27,5.72-.51,1.19-1.95,1.04-3.18,.5-2.85-1.25-6.29-2.04-4.63-6.5,1.51,.09,3.03,.18,4.54,.27Z"/>
  <path class="cls-1" d="M54.41,487.61c-1.73-.08-3.94,1.49-4.93-1.16-.59-1.58-.67-3.41,.47-4.81,1.84-2.26,3.36,.24,5.03,.57-.19,1.8-.37,3.6-.56,5.4Z"/>
  <path class="cls-1" d="M519.44,35.39c2.98-1.45,5.52,2.03,8.48,.76-.88,2.67-1.76,5.34-2.64,8.01,0,0,.01-.01,.01-.01-3.82-1.67-5.26-4.92-5.85-8.75Z"/>
  <path class="cls-1" d="M544.15,113.84c1.61-1.69,2.92-3.98,5.67-1.17,1.87,1.91,4.54,2.41,7.21,2.42-4.63,3.06-9.04,3.87-12.88-1.25Z"/>
  <path class="cls-1" d="M116.21,242.29c-1.69,1.29-3.3,3.28-5.48,.75-1.35-1.57-1.18-3.37,.37-4.42,1.93-1.31,4.42-2.93,5.39,1.17-.1,.83-.19,1.67-.29,2.5Z"/>
  <path class="cls-1" d="M72.57,436.54c.1,1.54,.21,3.08,.31,4.62-1.06-.45-2.69-.62-3.06-1.4-1.35-2.79-6.36,3.83-5.37-1.72,.78-4.31,5-2.85,8.12-1.5Z"/>
  <path class="cls-1" d="M533.53,84.18c-1.78-.25-2.3-1.6-2.39-3.04-.13-2.06,1.14-3.03,3.09-2.92,1.63,.09,2.65,1.08,2.46,2.77-.21,1.79-1.2,3.03-3.16,3.19Z"/>
  <path class="cls-1" d="M539.61,63.43c2.76-2.68,4.89-4.69,8.13-3.74,.94,.28,1.32,1.89,.52,2.42-2.31,1.51-4.73,3.3-8.65,1.32Z"/>
  <path class="cls-1" d="M408.23,30.08c-5.29-.65-9.01-2.86-8.93-8.9,1.93,1.04,7.9,6.98,8.93,8.9Z"/>
  <path class="cls-1" d="M59.23,599.69c.1,1.88-1.01,2.53-2.64,2.38-2.1-.2-3.5-1.45-3.89-3.49-.39-2.04,1.14-2.22,2.64-2.21,2.22,.02,3.43,1.24,3.9,3.32Z"/>
  <path class="cls-1" d="M54.8,441.13c-2.57-.29-2.74-2.37-2.83-4.19-.08-1.74,1.54-1.38,2.61-1.41,2.31-.08,3.6,1,3.3,3.42-.22,1.77-1.5,2.22-3.08,2.18Z"/>
  <path class="cls-1" d="M414.16,37.76c-.07,2.28-.93,3.21-2.63,3.24-2.13,.04-2.99-1.17-2.8-3.14,.16-1.73,1.34-2.34,2.95-2.29,1.79,.06,2.35,1.23,2.48,2.19Z"/>
  <path class="cls-1" d="M446.05,38.38c2.32,.16,3.19,1.15,3.19,2.86,0,2.23-1.4,2.97-3.35,2.74-1.77-.21-2.35-1.53-2.25-3.15,.11-1.84,1.41-2.33,2.41-2.45Z"/>
  <path class="cls-1" d="M197.25,392.85c-3.19,2.09-6.4,2.11-11.2,.32,4.65-2.18,7.94-1.38,11.2-.32Z"/>
  <path class="cls-1" d="M134.31,255.28c2.61,4.3-.35,9.55,2.36,13.83-6.01-3.72-3.88-8.83-2.36-13.83Z"/>
  <path class="cls-1" d="M140.15,275.69c2.66,3.18,4.25,6.87,5.2,10.87-5.14-1.99-6.14-5.97-5.2-10.87Z"/>
  <path class="cls-1" d="M131.09,244.18c1.79,3.17,3.32,6.41,3.06,10.19-5.4-2.09-2.29-6.72-3.06-10.19Z"/>
  <path class="cls-1" d="M145.56,613.43c2.63-2.02,5.58-2.93,8.9-2.48-1.88,4.74-5.88,1.85-8.9,2.48Z"/>
  <path class="cls-1" d="M125.25,245.64c1.89,.3,4.03,.48,3.21,3.27-.2,.7-1.48,1.78-1.8,1.64-2.32-1.01-.97-3.24-1.39-4.92,0,0-.02,.01-.02,.01Z"/>
  <path class="cls-1" d="M557.34,114.15c-.16-1.74-.32-3.48-.48-5.21,1.89-.47,3.16,0,3.31,2.18,.14,2.01-.9,2.95-2.83,3.04Z"/>
  <path class="cls-1" d="M122.59,239.49c.89,.11,1.79,.22,2.68,.33,0,1.94-.01,3.87-.02,5.81,0,0,.01-.01,.02-.01-3.98-.7-2.66-3.71-2.67-6.13Z"/>
  <path class="cls-1" d="M54.41,487.61c.19-1.8,.38-3.6,.56-5.4,1.04-.02,2.08-.04,3.12-.06,0,0,.02,.02,.02,.02-.27,2.47,.92,5.93-3.7,5.44Z"/>
  <path class="cls-1" d="M139.87,615.15c1.46-1.99,3.64-1.7,5.7-1.77-.74,4.33-3.06,3.56-5.7,1.77Z"/>
  <path class="cls-1" d="M93.43,96.15c1.66,0,3.32,0,4.97,0,.47,2-.12,3.27-2.36,3.29-2.22,.02-2.8-1.34-2.61-3.28Z"/>
  <path class="cls-1" d="M118.58,406.54c-1.05,1.76-2.49,2.93-4.63,3.03-.27-3.78,2.25-3.3,4.63-3.03Z"/>
  <path class="cls-1" d="M136.79,269.26c1.72,1.48,3.06,3.17,3.09,5.58-3.68-.39-2.8-3.31-3.09-5.58Z"/>
  <path class="cls-1" d="M540.62,174.97c2.02,.23,2.55,1.63,2.62,3.37-2.29-.02-3.56-.84-2.62-3.37Z"/>
  <path class="cls-1" d="M95.8,426.67c.19,1.88-.85,2.76-2.54,3.1-.18-1.87,.63-2.94,2.54-3.1Z"/>
  <path class="cls-1" d="M569.09,125.9c-1.05-.18-2.29-.14-2.2-1.74,0-.16,.29-.44,.45-.45,1.6-.09,1.56,1.15,1.74,2.2,0,0,.01-.01,.01-.01Z"/>
  <path class="cls-1" d="M542.65,106.41c-.55,1.27-1.71,1.45-2.89,1.6,.36-1.62,.76-3.16,2.89-1.6Z"/>
  <path class="cls-1" d="M525.06,205.03c-1.8-.23-2.85-1.16-2.89-3.05,2.15-.1,3.1,.93,2.89,3.05Z"/>
  <path class="cls-1" d="M101.86,420.82c-.06,1.88-.93,2.93-2.91,2.84,.09-1.85,1.07-2.78,2.91-2.84Z"/>
  <path class="cls-1" d="M393.83,410.64c.1-1,.2-2,.31-3,.69,.44,1.9,.82,1.96,1.34,.19,1.51-1.22,1.47-2.27,1.66Z"/>
  <path class="cls-1" d="M54.75,579.92c.17,.49,.34,.98,.52,1.47-.64-.14-1.28-.27-1.93-.41,.47-.35,.94-.7,1.41-1.06Z"/>
  <path class="cls-1" d="M523.58,198.75c.47-.67,.95-1.34,1.42-2.01,.02,1.01-.4,1.73-1.42,2.01Z"/>
  <path class="cls-1" d="M572.01,166.79c-.1,.18-.21,.36-.31,.53,.1-.18,.2-.36,.31-.54,0,0,0,0,0,0Z"/>
  <path class="cls-1" d="M522.21,202c-1.18-.6-1-1.19,.02-1.77,0,.59-.01,1.18-.02,1.77Z"/>
  <path class="cls-1" d="M522.2,200.28c.48-.54,.97-1.08,1.45-1.63-.48,.54-.97,1.09-1.45,1.63Z"/>
  <path class="cls-1" d="M539.79,117.08c.5-.48,1-.96,1.5-1.45-.5,.48-1,.96-1.5,1.45Z"/>
  <path class="cls-1" d="M469.59,84.78c-1.18,5.55,4.67,7.49,6.04,11.73-1.32,.07-3.28,3.5-3.49,.87-.34-4.4-10.3-6.88-2.55-12.6Z"/>
  <path class="cls-1" d="M414.31,61.58c.26-2.51-3.42-3.36-2.56-6.12,1.99,2.4,5.33-3.65,6.61,.86,.78,2.76-.4,5.28-4.05,5.25Z"/>
  <path class="cls-1" d="M548.78,142.69c-.15,1.35,.04,2.84-1.57,3.53-.58-1.24-1.79-2.64-1.54-3.68,.22-.91,2.03-.32,3.1,.15Z"/>
  <path class="cls-1" d="M440.65,79.14c1.33,.17,2.08,.87,1.95,2.27-.01,.13-.4,.33-.6,.31-1.53-.18-1.84-1.14-1.49-2.47,0,0,.14-.12,.14-.12Z"/>
  <path class="cls-1" d="M572.16,163.74c-1.05-8.02,5.7-4.73,9.28-7.19-1.81,9.55-2.42,9.97-9.3,7.19,0,0,.02,0,.02,0Z"/>
  <path class="cls-1" d="M557.49,152.52c.49-.06,.95-.2,1.38-.45,2.28,.14,2.82,2.18,3.94,3.59,0,0,0,.33,0,.33-1.4,2.4-2.79,4.8-4.62,7.95-1.44-2.71-2.69-5.04-3.93-7.37,.25-.37,.37-.77,.36-1.22,.96-.94,1.91-1.89,2.87-2.83Z"/>
  <path class="cls-1" d="M571.81,137.97c.94,.89,1.88,1.78,2.81,2.67-.34,3.08,.04,6.84-5.09,5.44l-.12-.09c-.26-1.39-.13-3.04-.85-4.13-3.47-5.25,.41-4.07,3.25-3.89Z"/>
  <path class="cls-1" d="M586.65,134.71c-.18,1.07-.2,2.28-1.78,2.17-.17-.01-.44-.28-.45-.45-.13-1.59,1.11-1.59,2.15-1.8,0,0,.08,.08,.08,.08Z"/>
  <path class="cls-1" d="M577.88,120.1c-.21,1.06-.2,2.3-1.8,2.18-.17-.01-.44-.29-.45-.46-.11-1.6,1.12-1.6,2.18-1.79,0,0,.07,.07,.07,.07Z"/>
  <path class="cls-1" d="M128.19,210.58c.94,.13,2.01,.15,2.15,1.4,.03,.25-.57,.85-.81,.81-1.24-.17-1.23-1.25-1.37-2.18,0,0,.03-.03,.03-.03Z"/>
  <path class="cls-1" d="M557.49,152.52c-.96,.94-1.91,1.89-2.87,2.83,.14-1.77-1.05-4.1,1.06-5.08,1.54-.72,1.47,1.24,1.8,2.24Z"/>
</svg>