<?xml version="1.0" encoding="UTF-8"?>
<svg id="Layer_1" data-name="Layer 1" xmlns="http://www.w3.org/2000/svg" viewBox="0 0 556.02 512.33">
  <defs>
    <style>
      .cls-1 {
        fill: #279a47;
      }
    </style>
  </defs>
  <path class="cls-1" d="M283.81,511.89c1.14-9.58,2.11-19.18,3.47-28.72,2.14-14.98,4.5-29.93,6.88-44.87,1.32-8.27,3.32-16.45,4.24-24.75,1.14-10.3,1.53-20.69,2.12-31.04,.07-1.27-.56-2.58-1.21-5.35-1.67,2.22-2.76,3.24-3.31,4.49-2.05,4.67-5.02,7.55-10.6,6.55-.97-.17-2.1,.59-3.15,.92,.51,1.01,.76,2.34,1.56,2.97,4.09,3.23,2.27,5.89-.96,7.84-4.8,2.88-7.56,6.9-9.09,12.22-1.98,6.86-4.35,13.64-12.85,15.09-.55,.09-1.29,.87-1.54,.71-8.4-5.35-14.38,.2-20.09,4.92-2.73,2.26-4.49,2.88-7.82,1.48-4.31-1.8-9.02-2.61-15.29-4.32-4.86,2.99-11.5,7.1-18.19,11.14-.88,.53-2,1.04-2.98,.99-1.8-.09-3.58-.6-5.37-.93,.34-1.6,.26-3.47,1.08-4.76,6.95-10.82,13.89-21.65,21.23-32.21,3.35-4.82,3.22-9.94,2.88-15.2-.21-3.16-1.87-4.91-5.38-3.51-2.91,1.16-5.86,2.23-9.37,3.56,1.3,3.32,2.91,6.13,3.41,9.12,.38,2.26-.66,4.75-1.07,7.14-2.15-.46-5.01-.21-6.29-1.52-3.13-3.2-4.95-1.96-7.25,.72-1.94,2.25-3.46,5.7-7.7,3.56-.57-.29-2.87,1.18-3.06,2.1-.9,4.49-1.36,9.07-1.98,13.62,.53,.14,1.06,.28,1.59,.41-1.45,1.24-3.05,2.35-4.3,3.77-1.14,1.3-2.02,2.87-2.75,4.45-.72,1.55-.63,3.8-1.74,4.77-1.5,1.31-3.82,1.69-5.79,2.46,.08-1.78-.36-3.79,.33-5.29,2.27-4.92,5.38-9.49,7.31-14.53,1.09-2.85,.5-6.33,.73-10.75-2.68,1.19-4.04,1.76-5.37,2.4-3.89,1.88-7.43,1.78-10.6-1.55-2.77-2.92-2.9-6.47-.65-9.13,1.87-2.21,5.19-3.19,8.39-4.16,.58-3.13,6.88-4.96,3.55-10.18-2.16-3.39-3.42-7.35-5.51-11.98,.54-.4,2.32-1.07,2.83-2.27,.88-2.08,1.42-4.96-2.34-4.81-2.59,.1-5.84,.18-7.58,1.68-5.19,4.46-9.8,9.59-14.58,14.53-.41,.43-.54,1.29-.53,1.95,.12,6.24-1,8.2-6.63,8.24-5.33,.04-7.64,3.3-10.48,6.8-5.61,6.93-11.2,13.98-17.65,20.08-2.5,2.36-7.41,3.35-11.05,3.03-4.68-.41-6.51-4.96-3.61-9.24,3.9-5.76,8.55-11.1,13.49-16.01,3.43-3.41,7.92-5.74,11.87-8.66,.93-.69,2.29-1.87,2.21-2.7-.72-6.92,5-10.62,7.9-15.63,.98-1.69,4.47-1.95,6.83-2.8,.89-.32,2.15-.17,2.71-.75,7.69-7.95,15.29-15.98,22.93-24.02-5.48-9.53-11.61-9.88-22.06-1.82,1.01,4.39,2.44,8.33,2.55,12.31,.04,1.49-2.73,3.58-4.65,4.51-4.84,2.33-10.3-.25-13.35-6.27-3.64,2.22-7.25,4.42-10.87,6.63-.12-.19-.25-.38-.37-.58,2.51-1.86,4.9-3.89,7.55-5.53,3.91-2.42,6.36-4.85,.55-8.89,2.64-.65,4.43-1.09,6.56-1.61-.1-.61-.28-1.21-.28-1.81,0-2.49,1.08-6.07-.15-7.26-2.51-2.42-6.17-4.65-9.53-4.94-5-.43-7.9-2.68-10.69-6.39-1.31-1.75-3.86-2.57-5.84-3.81l-.85,1.12c-.69-1.37-1.16-2.94-2.15-4.05-.67-.75-2.07-1.12-3.13-1.1-.38,0-1.19,1.8-1,2.57,.82,3.31-.35,5.06-3.33,6.73-1.49,.83-1.86,3.66-2.86,5.84-5.49-8.92-3.39-18.33-3.12-27.48,.04-1.39,1.87-2.82,3.05-4.07,3.74-3.97,7.78-7.69,11.24-11.88,1.28-1.55,1.92-4.3,1.54-6.25-.17-.87-3.57-1.55-5.52-1.56-16.42-.16-32.84,.11-49.26-.26-12.32-.27-24.63-1.25-36.93-2.03-1.59-.1-3.13-.92-4.7-1.4-.02-.66-.04-1.32-.06-1.98,4.32-.69,8.62-1.83,12.96-2,21.51-.87,43.03-1.49,64.54-2.21,.68-.02,1.35-.2,2.36-1.55-2.6-.76-5.18-1.57-7.79-2.27-3.85-1.03-4.35-2.74-1.95-5.85,1.48-1.92,2.55-4.16,3.44-5.65h9.15c-.74-2.8-1.13-4.27-1.72-6.48,9.16,6.4,16.13,.63,22.51-3.75,2.46-1.69,2.89-7.15,3.15-10.97,.27-3.94,.17-7.22,4.88-8.69,1.52-.47,2.44-2.86,3.63-4.37-1.62-.85-3.33-1.56-4.85-2.57-1.6-1.07-4.12-2.34-4.22-3.66-.13-1.73,1.3-4.5,2.83-5.25,6.39-3.12,10.88-14.72,7.46-21.2-3.2-6.06-6.85-11.89-10.19-17.88-.59-1.06-1.14-2.74-.69-3.63,.49-.96,2.49-2.13,3.25-1.82,8.02,3.31,12.12-1.61,16.01-7.21,.16-.23,.61-.26,1.58-.65,2.15,2.74-.83,10.67,7.21,8.19,6.2-9.74,4.91-20.48,2.83-32.91,5.36,2.2,10.13,3.7,14.42,6.08,2.95,1.64,4.66,1.51,6.63-1.1,4.67-6.19,9.46-12.28,14.23-18.39,5.31-6.8,11.8-11.78,19.93-15.15,4.45-1.85,7.94-6.02,12.07-9.3-2.51-4.15-4.64-7.68-6.77-11.2,.27-.18,.53-.36,.8-.54,5.56,7.48,11.13,14.95,16.68,22.43,4.81,6.48,6.96,6.79,12.28,.99,3.02-3.3,5.74-3.54,9.06-.71,1.44,1.22,3.12,2.16,5.81,3.98v-29.69c.35-.01,.7-.02,1.05-.04,2.37,4.79,4.74,9.58,7.21,14.32,.03,.06,1.45-.61,2.28-.96-2.39-3.66-1.94-8.91,1.35-10.26,3.61-1.47,7.68-1.79,11.16-2.53,6.64,8.05,9.1,17.46,7.89,27.77,8.46-.71,8.94-1.32,8.2-8.45-.22-2.08-.03-4.2,.35-6.39,.65,2.97,1.3,5.94,1.95,8.91,.46,.13,.92,.26,1.38,.4,1.1-2.17,2.51-4.24,3.25-6.53,1.75-5.37,3.22-6.26,8.27-3.05,5.95,3.77,12.24,5.79,18.38,2.04,8.19-5,14.77-3.09,21.25,2.66,.33,.29,.97,.23,1.85,.41,.48-1.9,1.07-3.71,1.38-5.56,1.88-11.24,3.86-22.47,5.4-33.76,.37-2.69-.91-5.58-1.18-8.4-.17-1.83-.62-4.72,.3-5.38,4.99-3.54,5.14-8.98,6.22-14.03,1.55-7.22,2.82-14.49,4.34-21.71,.42-2.01,1.3-3.92,1.97-5.87,.52,.07,1.03,.15,1.55,.22-.57,6.12-.9,12.28-1.76,18.36-2.57,18.11-5.23,36.22-8.12,54.28-.79,4.94,2.35,7.4,5.15,10.16,.66,.65,2.36,.69,3.42,.4,4.08-1.12,8.1-2.49,12.84-3.99,1.61-8.1,10.65-9.72,16.68-14.53,1.11-.89,3.79-.18,5.63,.27,4.24,1.03,8.35,2.82,12.63,3.35,1.89,.23,4.15-1.71,6.1-2.9,1.64-1.01,3.08-2.36,4.6-3.56,1.02,2.07,2.08,4.12,3.05,6.21,.28,.6,.33,1.3,.78,3.18,3.13-3.83,5.68-6.95,9.07-11.09-1.17,5.92-2.09,10.6-2.72,13.78,4.66,3.25,8.88,5.57,12.23,8.79,1.74,1.67,2.52,4.89,2.69,7.48,.22,3.31,.44,5.36,4.48,6.25,7.71,1.71,8.36,3.92,2.93,9.63-4.56,4.79-3.4,9.72-1.26,14.66,2.55,5.91-.35,15.12-6.1,17.99-4.21,2.1-4.17,6.01,.42,9.29-6.48,4.89-12.87,9.71-19.16,14.46,2.58,6.36,1.33,8.44-5.27,10.42-4.56,1.36-9.87,1.95-11.14,8.1,6.23,.31,7.57,2.49,5.82,9.99,10.45,1.57,14.93,8.07,13.66,19.46,3.92-1.31,6.96-2.33,8.64-2.89,1.19-3.51,1.65-5.95,2.8-7.99,2.31-4.1,3.17-8.13,.96-12.51-1.91-3.78-1.17-6.38,3.3-7.47,4.08-.99,5.98-3.12,4.37-7.72-1.24-3.54,.48-5.27,4.4-5.98,2.3-.41,5.2-2.46,6.1-4.52,1.38-3.17,2.86-4.78,6.36-5.09,4.61-.4,8.53-2.04,9.82-7.33,.21-.87,2.81-2.14,3.36-1.78,7.51,4.87,13.73,1.05,20.03-2.62,1.03-.6,2.18-1.02,4.25-1.98,.21,2.9,.36,5.13,.54,7.61,4.05,3.11,6.32-.34,8.98-3.4,2.01,3.65,3.63,7.06,5.69,10.18,2.24,3.39,5.27,4.92,9.55,3.32,4.15-1.56,4.74,1.44,5.02,4.52,.72,7.94,1.13,8.19,8.56,5.75,4.02-1.32,8.03-2.69,12.13-3.71,2.09-.52,4.35-.3,6.54-.42,.2,.52,.41,1.05,.61,1.57-2.19,1.47-4.27,3.12-6.58,4.36-2.63,1.42-5.86,1.99-8.08,3.83-1.93,1.6-3.73,4.4-3.86,6.77-.09,1.68,2.54,3.68,4.23,5.24,1.05,.97,2.63,1.37,5.25,2.65-2.72,1.48-4.2,2.52-5.84,3.13-6.8,2.54-8,9.31-2.58,14.16,1.81,1.62,3.27,3.68,4.7,5.68,2.75,3.86,1.21,6.55-2.09,9.45-4.6,4.04-8.49,8.88-13.01,13.02-1.72,1.58-4.35,2.17-7.48,3.65-.06,.4-.16,1.93-.5,3.4-1.48,6.4-3.14,7.45-9.5,7.6-4.7,.11-9.43,.7-14.04,1.59-1.36,.26-2.43,2.24-3.53,3.52-1.35,1.58-2.6,3.25-4.5,5.66-1.79-2.44-3.08-4.65-4.82-6.42-1.49-1.51-3.51-2.5-5.29-3.71-.89,1.59-1.89,3.14-2.66,4.79-1.74,3.7-3.37,7.45-5.05,11.2,5.33,4.42,4.88,10.58-1.54,15.4-3.89,2.92-8.2,5.29-12.33,7.92-1.9-3.11-.89-6.13,2.81-7.53,5.35-2.02,6.53-4.54,5.53-10.52-.21-1.24,.97-2.72,1.78-4.74-1.88-.43-3.7-.75-5.45-1.28-1.44-.43-2.78-1.19-4.21-1.65-1.9-.62-3.85-1.1-4.29-1.22-3.29-1.37-5.21-2.61-7.26-2.92-3.66-.56-7.1,.75-7.86,4.61-2.26,11.4-9.37,17.81-20.19,20.56-3.99,1.02-3.95,3.8-3.03,6.55,1.19,3.57,3.91,2.32,6.02,.93,4.31-2.83,8.41-5.99,12.7-8.84,1.27-.84,2.91-1.12,4.79-1.8,1.73,4.76,4.17,9.13-1.46,13.3-1.56,1.16-1.89,3.99-2.51,5.41-2.18,.77-4.02,1.42-5.86,2.06,1.56,1.53,2.86,3.54,4.71,4.51,9.37,4.87,18.92,9.4,28.35,14.16,9.26,4.67,18.49,9.42,27.67,14.25,2.68,1.41,5.15,3.23,7.72,4.86-.15,.65-.29,1.31-.44,1.96-2.2,.14-4.69,1.03-6.54,.31-15.05-5.87-29.98-12.04-44.93-18.13-1.87-.76-3.7-1.63-5.66-2.49-.55,3.23-.97,5.75-1.4,8.27-.79,.01-1.59,.02-2.38,.03-.48-3.13-.96-6.27-1.53-9.99-7.48,6.92-15,13.87-22.89,21.16,4.84,5.16,9.35,9.82,13.64,14.67,.93,1.05,1.05,2.82,1.55,4.26-1.72,.21-3.89,1.19-5.09,.5-6.37-3.71-12.56-7.77-18.68-11.88-2.19-1.47-3.91-3.8-6.86-1.4-3.13,2.54-.91,4.7,.42,6.85,4.39,7.09,8.85,14.14,13.29,21.21-.37,.24-.74,.47-1.1,.71-5.39-7.95-10.77-15.89-16.16-23.84-.69-1.02-1.12-2.52-2.07-3.01-1.8-.92-3.9-1.26-5.88-1.84-.44,2.15-1.97,4.94-1.14,6.34,5.55,9.41,11.65,18.5,17.48,27.75,5.36,8.48,10.61,17.03,16.17,25.98-2.33-1.13-4.19-2.02-5.91-2.85-.46-1.76-.51-4.13-1.61-5.82-9.31-14.33-18.81-28.53-28.28-42.76-.36-.54-.97-.91-1.47-1.36-.47,.23-.95,.47-1.42,.7,2.17,4.4,4.35,8.8,5.88,11.9-5.51,3.94-10.45,7.48-15.39,11.01-.34-.25-.69-.51-1.03-.76,1.09-3.94,2.19-7.87,3.55-12.76-2.03,.33-3.62,.42-5.09,.87-4.35,1.35-8.62,2.96-12.98,4.25-4.26,1.26-6.72,3.68-6.43,8.36,.11,1.76,.09,3.53,.1,5.29,.04,6.79-2.46,11.29-6.86,12.35-4.52,1.09-12.41-2.74-14.93-7.13-1.12-1.94-2.3-3.91-3.79-5.56-1.43-1.58-3.3-2.77-5.45-4.51,.29-.47,1.04-1.66,1.69-2.71-.34-.5-.42-.75-.54-.77-10.31-1.76-12.25-.27-9.38,9.81,2.39,8.41-1.45,15.51-2.64,23.13-2.54,16.15-6.56,32.1-8.35,48.31-1.74,15.79-6.48,30.92-8.5,46.6-.27,2.13-1.38,4.15-2.1,6.23-.64-.15-1.28-.3-1.92-.45ZM442.16,239.64c-3.7,1.62-7.04,3.45-10.61,4.58-7.54,2.38-7.85,2.82-4.48,10.17,1.81,3.96,4.03,4.4,7.03,1.28,.96-1,1.64-2.27,2.4-3.44,3.62-5.51,6.04-6.21,12.38-3.86,2.33,.87,4.8,1.38,7.29,2.08,.77-7.02-1.33-10.03-6.35-10.2-2.61-.09-5.21-.41-7.67-.61Zm-6.25-21.5c-6.67,3.64-12.49,6.82-19.07,10.41,8.87,2.25,19.06-5.6,24.95,5.87,8.61-9.85-5.1-9.86-5.88-16.28Zm-90.39-131.82c-.32,2.55-.83,5.63-1.03,8.73-.05,.81,.66,2.14,1.33,2.39,.78,.28,2.16-.07,2.82-.67,2.68-2.44,5.18-5.07,7.37-7.25-2.55-.78-6.21-1.9-10.49-3.2Zm68.87,77.96c6.29-1.7,8.79-4.37,8.1-9.19-.13-.92-1.26-2.05-2.18-2.39-.61-.23-2.18,.57-2.46,1.25-1.19,2.95-2.07,6.04-3.47,10.33Z"/>
  <path class="cls-1" d="M86.33,152.27c-10.53-.14-22.31-8.87-23.39-19.24-.91-8.73,.8-17.76,8.89-23.55,7-5.02,14.3-3.84,21.35,.06,8.18,4.52,12.2,11.63,11.46,20.9-.34,4.31-1.58,8.67-3.09,12.75-2.26,6.09-7.91,9.18-15.22,9.09Z"/>
  <path class="cls-1" d="M175.49,36.17c-.68,9.45-7.02,18.48-15.75,20.13-7.79,1.47-16.51-.85-20.32-8.61-5.11-10.39-3.05-18.65,5.02-26.75,2.31-2.32,5.31-3.35,8.56-.79,1.07,.84,3.04,1.36,4.31,.99,7-2,11.25-.81,14.64,5.25,1.67,2.98,2.39,6.5,3.54,9.78Z"/>
  <path class="cls-1" d="M247.68,50.18c0-9.81,3.8-15.82,11.81-18.72,1.7-.62,3.86,0,5.81,.09,1.34,.06,2.96,.71,3.96,.18,4.36-2.32,6.04,.11,7.39,3.64,2.96,7.77,2.74,19.49-4.98,24.92-5.52,3.88-11.01,4.09-16.83,1.83-5.71-2.22-7.66-6.86-7.15-11.95Z"/>
  <path class="cls-1" d="M131.06,136.19c-6.04-3.15-10.97-15.04-8.87-20.77,1.48-4.06,6.19-6.21,10.43-4.75,3.77,1.29,5.68,6.78,3.63,11.27-.84,1.84-2.4,3.34-3.83,5.26-1.05-.82-1.64-1.59-2.37-1.76-1.08-.24-2.25-.05-3.38-.04,.45,1.1,.7,3,1.37,3.16,4.91,1.18,4.14,4.14,3.02,7.63Z"/>
  <path class="cls-1" d="M272.57,446.52c.94-1.03,2.13-2.54,3.53-3.84,3.48-3.24,8.57-1.97,8.42,2.59-.13,4.13-2.86,8.17-4.44,12.26-1.55-.61-3.9-.79-4.49-1.91-1.41-2.68-2-5.79-3.03-9.1Z"/>
  <path class="cls-1" d="M288.28,413.36c2.11,2.39,4.22,4.78,6.33,7.18-2.08,1.83-3.96,4.82-6.29,5.22-3.44,.59-6.82-1.77-6.48-5.72,.2-2.28,2.59-4.38,4-6.56,.81-.04,1.63-.08,2.44-.12Z"/>
  <path class="cls-1" d="M318.7,421.75c3.69,2.63,10.77-3.3,11.6,4.24,.23,2.07-4.47,6.81-6.52,6.6-5.66-.58-4.28-6.43-5.08-10.84Z"/>
  <path class="cls-1" d="M460.64,138.35c1.51-2.95,2.46-6.48,4.72-8.67,1.65-1.6,6.27-2.81,7.37-1.8,3.22,2.95,.69,6.34-2.04,8.11-2.74,1.78-6.24,2.38-9.41,3.5-.22-.38-.43-.76-.65-1.14Z"/>
  <path class="cls-1" d="M499.18,110.93c-.1,5.48-3.31,9.38-6.65,8.68-1.66-.35-2.9-2.66-4.33-4.08,2.48-2.38,4.83-4.95,7.57-6.97,.43-.32,2.68,1.85,3.41,2.37Z"/>
  <path class="cls-1" d="M329.1,54.14c3.49,4.49,3.05,10.26-.52,12.65-.88,.59-2.55,.95-3.31,.49-.74-.44-1.37-2.3-1.03-3.12,1.35-3.31,3.09-6.47,4.86-10.02Z"/>
  <path class="cls-1" d="M357.25,65.88c-.2-.79-.6-1.48-.41-1.71,2.09-2.56,4.27-5.05,6.42-7.55,.73,.82,2.25,1.92,2.07,2.4-1.36,3.67-3.38,6.8-8.08,6.86Z"/>
  <path class="cls-1" d="M334.06,447.62c1.19,3.03,1.98,5.02,3.04,7.73-1.01,.79-2.27,2.33-3.88,2.91-2.83,1.01-4.06-1.01-3.32-3.3,.8-2.47,2.57-4.63,4.15-7.33Z"/>
  <path class="cls-1" d="M491.41,281.39c-1-3.87,.6-6.19,3.98-6.58,1.04-.12,3.56,2.49,3.38,3.51-.77,4.4-4.17,3.5-7.36,3.07Z"/>
  <path class="cls-1" d="M460.11,304.5c-1.71,2.51-3.55,5.22-5.73,8.4-2.48-3.03-4.27-5.23-5.43-6.64,3.24-.51,6.91-1.09,11.15-1.76Z"/>
  <path class="cls-1" d="M260.69,498.18c-2.38,.77-4.75,1.64-7.19,2.14-.18,.04-.89-2.53-1.36-3.89,2.57-.51,5.14-1.03,7.7-1.54,.28,1.1,.56,2.2,.85,3.29Z"/>
  <path class="cls-1" d="M471.93,302.66c4.02-2.32,6.68-4.82,8.85-.87,.5,.9-.97,2.88-1.53,4.36-2.15-1.02-4.29-2.05-7.32-3.49Z"/>
  <path class="cls-1" d="M434.85,358.78c1.71-3.83,3.08-6.9,4.78-10.7,3.71,5.59,2.53,7.94-4.78,10.7Z"/>
  <path class="cls-1" d="M376.23,404.55c-.53,4.28-.9,7.31-1.27,10.34-5.45-5.32-5.34-6.23,1.27-10.34Z"/>
  <path class="cls-1" d="M296.25,28.25c-1.26,2.57-2.51,5.14-4.05,8.28-3.35-5.77-2.61-7.57,4.05-8.28Z"/>
  <path class="cls-1" d="M244.86,461.59c1.45,2.31,3.64,4.52-.12,6.31-.95,.45-3.5-.31-3.87-1.15-1.57-3.55,1.29-4.22,3.99-5.17Z"/>
  <path class="cls-1" d="M37.6,218.8c-1.31-2.01-2.68-3.98-3.81-6.08-.1-.19,1.33-1.2,2.05-1.84,1.53,1.93,3.07,3.86,4.6,5.79-.95,.71-1.9,1.42-2.85,2.13Z"/>
  <path class="cls-1" d="M407.98,.81c-.98,2.37-1.96,4.74-3.1,7.49-1.37-.88-2.47-1.59-4.32-2.78,2.37-2.03,4.4-3.77,6.44-5.52,.32,.27,.65,.54,.97,.81Z"/>
  <path class="cls-1" d="M188.46,419.12c0-1.67-.53-3.65,.21-4.88,.42-.69,2.91-.14,4.47-.14-.62,1.82-1.23,3.63-1.85,5.45-.94-.14-1.89-.29-2.83-.43Z"/>
  <path class="cls-1" d="M553.67,126.95c-1.9,1.34-3.8,2.68-5.7,4.02-.39-.69-1.23-1.88-1.11-1.99,1.68-1.48,3.49-2.82,5.27-4.19,.51,.72,1.03,1.44,1.54,2.16Z"/>
  <path class="cls-1" d="M481.86,286.08c-1.7,1.5-3.39,3-5.09,4.49l-1.8-1.91c1.6-1.61,3.21-3.22,4.81-4.83,.69,.75,1.38,1.5,2.08,2.25Z"/>
</svg>