<?xml version="1.0" encoding="UTF-8"?><svg id="Layer_1" xmlns="http://www.w3.org/2000/svg" viewBox="0 0 574.23 481.97"><defs><style>.cls-1{fill:#1b4d26;}</style></defs><path class="cls-1" d="m246.8,166.26c-8.08,11.51-6.71,24.66-7.14,37.5-.18,5.51,1.9,6.89,6.94,4.47,1.84-.88,3.46-2.25,5.13-3.47,4.95-3.63,10.28-6.88,14.68-11.08,4.16-3.98,7.38-8.95,10.94-13.54,2.54-3.26,4.74-6.82,7.54-9.82,1.45-1.55,3.89-2.19,6.22-3.41,1.88,5.91-.6,9.81-3.91,12.33-13.05,9.95-20.62,23.89-28.63,37.59-3.8,6.49-3,9.37,4.02,11.63,2.27.73,4.68,1.25,7.06,1.43,14.23,1.07,28.46,2.09,42.71,2.88,1.88.1,3.94-1.01,5.76-1.88,5.8-2.78,11.53-5.72,17.29-8.6l.94,1.69c-6.04,3.78-12.08,7.56-18.2,11.38,2.24,3.82,4.61,7.52,6.65,11.39,6.42,12.2-5.07,32.88-22.66,30.67-9.84-1.23-16.85,1.56-23.88,7.11-1.21.95-2.66,1.61-4.04,2.33-6.75,3.5-7.21,8.61-1.41,13.74,7.67,6.78,17.39,8.02,26.78,10.16,3.86.88,7.78,1.51,11.69,2.09,2.91.43,5.74,1.79,8.39-1.6,1.58-2.01,3.89-1.45,4.36,2.1.2,1.51,1.83,3.55,3.27,4.06,12.65,4.52,25.13,10.14,38.2,12.75,20.2,4.04,38.62,12.72,57.92,19.07,9.26,3.05,19.25,3.79,28.69,6.37,16.31,4.46,32.37,9.88,48.71,14.25,9.45,2.53,19.23,3.81,28.85,5.69,2.52.49,5.25.69,7.45,1.85,1.4.74,2.01,2.99,2.98,4.56-2.06.87-4.2,2.6-6.17,2.42-2.77-.25-5.41-1.92-7.8-2.85-.75,2.27-1.3,4.34-2.22,6.24-.13.27-2.94-.18-2.99-.53-.3-2.03-.15-4.12-.15-7.35-5.83-1.47-12.58-3.26-19.38-4.87-10.06-2.39-20.16-4.66-30.24-6.97-10.57-2.42-21.35-4.16-31.65-7.43-9.96-3.17-19.55-7.63-29.06-12.07-8.2-3.83-16.47-6.72-25.53-8.03-6.35-.91-12.39-3.95-18.57-6.02-26.68-8.95-53.64-16.66-81.67-20.35-6.14-.81-11.92-4.23-17.92-6.29-2.41-.83-4.97-1.68-7.46-1.69-2.09-.01-4.94.56-6.12,1.97-2.16,2.6-3.66,6.03-.41,9.2,4.33,4.23,6.61,9.5,8.18,15.24,1.28,4.7,4.92,7.25,9.18,9.23,3.05,1.42,5.86,3.35,8.77,5.05l-1.01,1.75c-1.57-.87-3.11-1.82-4.73-2.58-1.73-.81-3.54-1.42-5.32-2.12-.18,2.06-1.24,4.68-.36,6.08,2.71,4.33,6.29,8.1,9.28,12.27,1.66,2.32,3.03,4.93,4.06,7.59.38.97-.24,3.05-1.07,3.56-.74.46-2.91-.12-3.54-.94-2.62-3.37-4.92-6.99-7.29-10.55-1.81-2.72-3.19-5.84-5.43-8.13-2.65-2.7-5.74-6.21-9.89-1.46-.64.73-2.28.55-3.44.85-4.25,1.12-7.43,2.74-5.83,8.3.35,1.21-1.8,3.14-2.77,4.75-.89,1.48-2.38,2.93-2.5,4.48-.47,5.76-.5,11.56-.66,17.35-.02.85-.04,1.76.24,2.54,3.67,10.39,7.24,20.83,11.16,31.13,1.99,5.22,5.14,9.44,10.45,12.32,8.16,4.44,9.79,12.86,11.07,21.21.96,6.3,1.98,12.58,3.02,18.87.54,3.23-2.55,8.09-6.45,7.84-3.23-.21-7.98-2.34-9.11-4.92-3.91-8.92-6.53-18.41-9.64-27.68-.27-.82-.79-1.66-.74-2.47,1.11-18.94-11.46-32.42-19.19-47.8-1.84-3.67-4.38-7.02-6.74-10.41-2.56-3.67-5.49-5.99-10.69-5.81-4.5.16-9.22-1.32-13.57-2.87-8.31-2.95-15.52-2.08-21.53,4.67-.96,1.08-1.56,2.6-1.99,4.02-2.58,8.56-5.12,17.13-7.51,25.75-.59,2.12-.51,4.42-.83,6.63-.37,2.53-.29,5.35-1.44,7.49-.98,1.81-3.43,2.81-5.23,4.17-.87-2.41-2.9-5.13-2.36-7.18,1.1-4.27,3.86-8.08,5.41-12.27,4.58-12.41,3.28-25.2,1.91-37.93-.63-5.83-1.87-11.6-2.42-17.44-.68-7.12-5.17-11.47-10.43-15.31-2.33-1.71-4.45-1.54-6.92.59-5.46,4.71-11.32,2.3-13.24-4.73-.46-1.66-2.47-3.8-4.07-4.1-12.37-2.35-24.01-.73-34.54,6.88-6.74,4.87-10.16,11.45-11.8,19.37-1.18,5.73-2.53,11.45-4.29,17.02-4.49,14.14-18.82,17.55-29.7,15.8-6.56-1.06-9.44-8.39-5.88-14.76,4.33-7.75,11.89-11.92,19.28-15.95,14.39-7.86,25.37-18.94,33.02-33.35,2.82-5.32,2.02-7.03-3.86-8.24-9.5-1.96-17.95,1.97-26.61,4.94-7.78,2.67-15.69,4.95-23.59,7.28-1.24.37-2.68.05-4.82.05,1.97-6.31,7.03-7.18,11.47-7.71,11.2-1.32,20.85-6.78,31.01-10.83,3.61-1.44,7.24-4.17,5.55-9.02-1.57-4.5-5.56-5.76-11.27-3.89-2.93.96-5.62,2.65-8.56,3.6-1.45.47-3.2,0-4.81-.04.11-1.64-.42-3.84.44-4.82,2.11-2.4,4.72-4.45,7.38-6.25,8.05-5.46,16.3-10.63,24.27-16.2,1.24-.87,1.69-3.19,2.02-4.93.34-1.78.07-3.67.07-5.49,3.16,0,6.45,1,8.28-.21,3.79-2.51,7.6-5.7,9.96-9.5,4.09-6.59.35-15.62-8.54-20.1-7.03-3.54-14.86-5.49-22.1-8.67-4.34-1.91-8.68-4.33-12.16-7.47-2.98-2.69-5.29-6.76-2.64-11.12,1.52-2.51,8.76-2.55,12.54-.14,4.8,3.06,9.49,6.3,14.08,9.67,8.2,6.02,16.86,9.54,27.03,5.44,2.21-.89,4.45-1.93,6.31-3.37,3.29-2.55,3.96-5.55.49-8.68-.75-.68-1.31-1.57-2.19-2.65,13.54-10.12,10.45-23.52,7.06-36.73-1.45-5.63-3.92-11.02-6.13-16.44-1.43-3.52-1.18-6.35,3.43-9.18,2.48,4.27,5.44,8.25,7.21,12.7,2.02,5.09,3.19,10.56,4.36,15.95,1.78,8.2,6.58,12.78,15.18,13.11,5.12.19,10.28-.49,15.6-.79,1.12,2.25,2.52,4.81,3.7,7.47,1.34,3.03,3.58,3.34,5.84,1.6,5.5-4.25,10.65-8.95,10.26-16.75-.09-1.87-.99-3.95-2.14-5.46-5.1-6.71-3.36-13.85,4.09-17.57,1.83-.91,3.68-3.25,4.1-5.23,1.98-9.27,4.85-18.65,4.78-27.97-.09-13.1-.14-26.03,2.38-38.96.52-2.65-.65-5.85-1.68-8.55-2.06-5.39-1.59-9.94,1.36-15.18,2.68-4.75,3.81-10.56,4.74-16.05.95-5.6.56-11.41,1.28-17.06.3-2.38,1.46-5.07,3.12-6.72,1.32-1.31,4.23-2.04,5.99-1.52,1.33.39,2.73,3.16,2.74,4.88.04,5.67-.13,11.41-.96,17.01-1.48,9.97-2.98,19.83.18,29.77.48,1.51.32,3.46-.17,5.01-3.02,9.53-5.91,19.02-6.49,29.14-.19,3.22-1.69,6.93-3.82,9.34-3.74,4.23-4.95,8.97-5.25,14.24-.48,8.41.34,16.94-3.01,25.07-.49,1.18.66,3.54,1.72,4.77,4.95,5.71,5.02,9.49.53,15.68-1.28,1.77-2.12,4.44-1.93,6.58.36,4.08,1.3,8.18,2.57,12.09,2.73,8.42,12.97,12.65,20.78,8.57,1.59-.83,2.67-2.96,3.57-4.7,5.66-11.05,11.21-22.16,16.79-33.25.54.1,1.07.21,1.61.31l.02.06Z"/><path class="cls-1" d="m56.74,153.3c-.01-13.44,9.98-23.34,23.53-23.3,14.04.04,23.9,9.73,23.96,23.57.06,12.88-10.65,23.31-23.89,23.28-13.25-.03-23.59-10.34-23.6-23.54h0Z"/><path class="cls-1" d="m124.18,389.45c13.93.14,23.82,10.18,23.64,23.99-.17,12.87-10.61,22.78-23.95,22.74-13.57-.03-23.31-10.5-23.69-24.16-.3-10.56,10.57-23.8,23.99-22.57h0Z"/><path class="cls-1" d="m267.66,401.89c-8.31,0-14.98-6.31-14.84-14.06s6.99-14.51,14.69-14.5c7.81.02,14.41,6.68,14.48,14.62.07,7.66-6.38,13.92-14.33,13.93h0Z"/><path class="cls-1" d="m308.33,444.78c-.9-7.58,6.9-13.99,14.05-14.18,7.65-.2,14.71,6.75,14.69,14.28-.03,8.14-6.61,14.28-15.06,14.29-7.81.01-14.93-7.88-13.67-14.4h0Z"/><path class="cls-1" d="m509.71,134.19c0-8.03,6.38-14.43,14.38-14.39,7.7.03,14.28,6.46,14.33,13.99.05,7.89-6.43,14.53-14.24,14.6-7.89.07-14.46-6.38-14.47-14.2h0Z"/><path class="cls-1" d="m13.31,258.58c-6.91.04-13.44-6.02-13.31-12.37.11-5.68,7.76-11.78,14.97-11.93,6.19-.13,12.24,5.84,12.31,12.17.08,6.69-6.13,12.09-13.97,12.13Z"/><path class="cls-1" d="m361.47,362.8c6.12.07,10.88,4.84,10.73,10.75-.16,6.41-4.88,10.73-11.49,10.55-5.17-.14-10.82-5.88-10.64-10.81.2-5.47,5.73-10.56,11.4-10.49Z"/><path class="cls-1" d="m44.47,470.62c-.06-6.08,5.15-11.27,11.21-11.16,5.52.1,11.04,5.79,10.91,11.25-.12,5.14-5.65,10.13-11.27,10.17-5.73.04-10.79-4.75-10.85-10.27h0Z"/><path class="cls-1" d="m468.21,116.26c-.11,4.24-3.38,7.27-7.81,7.24-3.8-.02-7.63-3.88-7.62-7.67,0-3.69,3.99-7.55,7.76-7.53,4.42.03,7.79,3.52,7.67,7.96h0Z"/><path class="cls-1" d="m170.75,17.42c-.1,3.72-3.16,6.42-7.22,6.4-4.09-.03-6.95-2.78-6.92-6.66.02-3.61,3.71-7.31,7.26-7.3,3.54,0,6.99,3.81,6.89,7.57h0Z"/><path class="cls-1" d="m62.7,44.14c-.01,4.1-2.73,6.76-6.86,6.74-3.93-.02-7.33-3.13-7.19-6.57.14-3.73,3.9-7.56,7.27-7.42,3.49.15,6.8,3.68,6.79,7.26h0Z"/><path class="cls-1" d="m127.97,53.32c-.05,3.93-3.02,6.88-6.87,6.84-4.07-.04-7.16-2.89-7.17-6.59,0-3.89,3.48-7.44,7.22-7.34,3.68.1,6.87,3.41,6.82,7.09h0Z"/><path class="cls-1" d="m198.69,30.04c.07,4.08-2.61,6.71-6.75,6.74-4.37.03-6.79-2.15-7.1-6.43-.27-3.71,2.92-6.85,6.76-6.96,3.81-.11,7.03,2.91,7.09,6.65h0Z"/><path class="cls-1" d="m93.17,52.71c-2.33-3.37-4.68-5.3-4.66-7.2.02-1.55,3.07-4.43,4.44-4.25,1.9.25,4.62,2.68,4.87,4.47.23,1.67-2.33,3.71-4.65,6.99h0Z"/><path class="cls-1" d="m138.42,0c1.13,1.85,3.29,3.81,3.1,5.51-.17,1.57-2.92,4.02-4.44,3.95-1.72-.07-4.61-2.45-4.69-3.94-.1-1.77,2.26-3.67,3.56-5.52.82,0,1.65,0,2.47,0Z"/><path class="cls-1" d="m88.17,11.41c-3.11,2.52-5.01,5.23-6.69,5.11-1.93-.14-3.67-2.81-5.5-4.38,1.72-1.62,3.24-4.11,5.23-4.58,1.5-.35,3.61,1.88,6.96,3.85Z"/><path class="cls-1" d="m140.74,43.35c-1.2-1.71-3.63-3.7-3.31-5.05.47-2.01,2.88-3.57,4.46-5.33,1.56,1.61,4.15,3.09,4.38,4.87.22,1.69-2.03,3.7-3.2,5.57-.78-.02-1.55-.04-2.33-.07h0Z"/><path class="cls-1" d="m112.37,196.35c-5.32,5.15-7.89,5.29-12.21.67,3.82-6.02,8.12-6.26,12.21-.67Z"/><path class="cls-1" d="m570.1,342.07c2.08,2.81,4.35,4.57,4.11,5.86-.33,1.78-2.55,3.2-3.97,4.78-1.59-1.45-4.22-2.74-4.47-4.39-.23-1.46,2.18-3.33,4.33-6.25h0Z"/><path class="cls-1" d="m530.75,367.6c-2.87,2.26-4.65,4.74-6.32,4.67-1.49-.07-3.76-2.85-3.96-4.64-.16-1.34,2.42-4.23,3.76-4.21,1.8.02,3.58,2.16,6.52,4.18Z"/><path class="cls-1" d="m244.89,146.5c.15,10.28-6.22,16.67-10.85,23.93-.49-.25-.99-.5-1.48-.75,4.01-7.55,8.03-15.09,12.33-23.18h0Z"/><path class="cls-1" d="m529.82,406.69c-3.12,1.76-5.11,3.79-6.51,3.44-1.77-.44-3.07-2.8-4.57-4.34,1.53-1.25,3.14-3.59,4.58-3.49,1.81.12,3.49,2.23,6.49,4.38h.01Z"/><path class="cls-1" d="m545.56,357.43c-2.05,1.32-3.29,2.74-4.36,2.62-1.03-.12-1.88-1.83-2.81-2.84.93-.85,1.87-2.41,2.78-2.39,1.19.03,2.34,1.3,4.39,2.6h0Z"/><path class="cls-1" d="m572.93,153.82c-1.84,1.23-2.91,2.5-3.79,2.38-1-.13-1.83-1.52-2.73-2.36.91-.89,1.72-2.31,2.76-2.5.83-.15,1.93,1.2,3.77,2.47h-.01Z"/><path class="cls-1" d="m206.95,424.25c1.41,1.3,3,2.47,2.88,2.7-.65,1.2-1.75,2.17-2.69,3.21-.82-.8-2.25-1.57-2.3-2.42-.06-.95,1.13-1.97,2.11-3.49Z"/><path class="cls-1" d="m417.75,170.46c-1.74,1.3-2.63,2.46-3.64,2.57-.75.08-2.4-1.3-2.33-1.85.15-1.06,1.09-2.61,1.96-2.81.88-.2,2.07,1,4.01,2.08h0Z"/></svg>