<?xml version="1.0" encoding="UTF-8"?>
<svg id="Layer_1" data-name="Layer 1" xmlns="http://www.w3.org/2000/svg" viewBox="0 0 612 792">
  <defs>
    <style>
      .cls-1 {
        fill: #1b4d26;
        stroke: #1b4d26;
        stroke-miterlimit: 10;
        stroke-width: 3px;
      }
    </style>
  </defs>
  <path class="cls-1" d="M160.17,622.81c9.68,21.88,8.7,35.42-3.13,46.15-10.69,9.69-25.82,11.47-38.12,4.49-13.72-7.78-18.73-21.76-14.37-41.59-18.56,3.12-36.8,6.18-55.03,9.25-11.06,1.86-12.62,.83-14.41-10.16-3.62-22.26-7.24-44.52-10.72-66.81-1.69-10.8,1.01-13.73,12.01-12.67,3.49,.34,6.95,1.89,10.23,3.33,9.69,4.25,19.97,1.36,25.5-7.4,5.17-8.19,3.43-19.55-3.95-25.9-7.72-6.64-18.86-6.3-26.7,.81-1.86,1.69-3.55,3.63-5.61,5.03-10.28,6.99-16.88,4.09-18.85-8.02-3.53-21.73-6.92-43.49-10.91-65.13-1.32-7.14,1.31-9.72,7.77-10.75,19.27-3.07,38.5-6.37,55.89-9.27-2.01-9.16-5.88-18.23-5.32-27.02,.43-6.72,5.33-14.14,10.25-19.37,10.06-10.7,26.82-11.53,39.34-3.51,12.76,8.17,17.81,23.58,12.5,39.69,2,.01,3.8,.28,5.51,0,17.31-2.87,34.59-5.9,51.9-8.75,9.69-1.6,11.63-.08,13.25,9.82,3.56,21.73,7.06,43.47,10.65,65.19,1.51,9.16-.51,12.13-9.51,11.93-4.04-.09-8.26-1.35-12.02-2.95-10.85-4.64-20.67-2.24-26.28,6.95-5.05,8.27-3.27,20.07,3.91,25.94,8.55,6.99,18.59,6.06,27.38-1.42,4.06-3.45,9.27-6.14,14.4-7.46,2.21-.57,7.63,2.82,8.05,5.07,4.7,25.18,8.82,50.48,12.83,75.79,.8,5.08-1.41,8.03-7.28,8.91-19.73,2.96-39.37,6.53-59.15,9.88ZM18.83,455.17c3.4,20.45,6.72,40.42,10.17,61.18,17.53-14.15,33.49-15.38,46.7-4.56,11.85,9.71,15.79,26.72,7.76,39.91-3.58,5.87-9.43,11.19-15.48,14.54-9.78,5.42-20.34,3.54-31.25-2.3,3.7,22.33,7.18,43.31,10.75,64.84,20.86-3.47,40.9-6.87,60.96-10.13,10.66-1.73,13.28,1.03,11.02,11.59-.51,2.4-1.59,4.71-2.6,6.98-4.2,9.44-1.36,19.36,7.18,24.86,8.26,5.32,19.57,3.83,25.99-3.43,6.91-7.81,6.78-18.55-.29-26.61-2.02-2.31-4.29-4.48-5.88-7.07-4.49-7.28-2.67-11.23,5.66-12.86,3.83-.75,7.69-1.36,11.54-2.01,17.49-2.93,34.98-5.85,52.79-8.83-3.65-21.83-7.14-42.72-10.76-64.33-16.56,14.2-32.46,15.85-45.66,5.55-12.69-9.9-17.06-26.59-9.07-40.34,3.45-5.94,9.25-11.33,15.25-14.8,9.65-5.58,20.21-4.26,30.23,1.69,.37-1.88,.75-2.69,.63-3.42-2.79-17.88-5.48-35.78-8.72-53.58-.27-1.49-4.48-3.53-6.56-3.24-16.26,2.29-32.45,5.16-48.67,7.73-22.51,3.55-23.39,2.44-15.21-18.98,2.81-7.35,1.06-13.91-3.94-19.38-5.41-5.92-12.19-8.82-20.38-6.03-7.35,2.5-12.46,6.93-14.07,15.04-1.73,8.71,1.85,14.75,7.64,20.88,2.81,2.98,3.87,8.36,3.95,12.69,.03,1.35-5.62,3.52-8.88,4.1-19.96,3.59-39.98,6.83-60.8,10.32Z"/>
  <path class="cls-1" d="M428.64,344.95c-6.6,19.7-18.14,29.01-34.39,28.38-14.21-.55-26.56-10.35-30.02-23.81-4.22-16.47,2.17-28.81,21.33-40.42-14.74-12.26-29.16-24.6-43.98-36.43-6.18-4.94-6.89-8.98-1.57-15.16,14.97-17.42,29.47-35.24,44.17-52.88,7.17-8.6,12.73-8.3,18.67,1.41,1.85,3.02,2.55,6.75,3.7,10.19,3.06,9.15,12.92,14.93,22.55,13.18,9.32-1.69,16.67-10.91,16.36-20.54-.3-9.41-7.63-17.15-16.97-18.97-5.59-1.09-11.29-2.72-16.31-5.32-5.14-2.65-5.55-7.05-1.55-11.81,15.32-18.22,30.55-36.53,45.7-54.9,3.98-4.82,7.49-4.4,11.97-.59,14.92,12.68,30.04,25.1,45.85,38.26,2.64-11.14,7.52-20.35,17.39-24.94,5.58-2.59,12.34-4.09,18.47-3.8,14.16,.67,26.03,11.67,28.92,25.1,3.31,15.41-3.38,27.6-22.08,39.15,14.55,12.11,28.87,24,43.16,35.93q10.07,8.4,1.78,18.38c-13.43,16.16-26.86,32.31-40.31,48.45-7.23,8.67-12.83,8.29-18.63-1.55-1.67-2.82-2.49-6.18-3.49-9.35-3.04-9.64-12.07-15.59-21.83-14.27-9.7,1.31-17.74,10.74-17.51,20.53,.23,9.55,8.08,17.49,17.75,19.41,5.79,1.15,11.68,3.3,16.61,6.44,1.78,1.13,2.49,7.75,.95,9.68-15.9,19.92-32.32,39.42-48.7,58.95-4.13,4.93-8.12,2.97-12.25-.51-14.97-12.63-30.08-25.1-45.77-38.15Zm-4.47-168.86c24.57,7.26,33.66,16.59,33.62,34.12-.03,14.15-9.56,27.23-23.99,30.52-6.19,1.42-13.38,.7-19.65-.9-12.56-3.19-18.01-13.68-21.4-25.84-14.39,17.29-27.9,33.53-42.05,50.53,14.79,12.31,29.31,24.07,43.41,36.32,3.92,3.4,6.6,8.23,9.85,12.41-4.76,2.96-9.23,6.67-14.36,8.71-8.73,3.47-14,9.67-14.15,18.7-.15,8.82,4.96,16.2,13.31,19.21,8.18,2.95,17.6,.8,22.32-6.56,2.67-4.16,2.69-9.94,4.65-14.68,1.62-3.92,3.73-8.16,6.88-10.67,1.2-.96,6.06,2.25,8.98,4,2.37,1.42,4.35,3.51,6.5,5.3,13.72,11.41,27.43,22.83,41.53,34.56,14.22-17.09,27.85-33.46,41.72-50.13-22.08-4.13-33.35-15.32-33.53-32.66-.16-15.21,10.82-28.98,25.58-32.08,17.65-3.71,30.9,5.06,39.69,26.76,13.15-15.8,26.08-31.34,39.46-47.41-16.48-13.72-32.61-27.09-48.68-40.54-7.28-6.09-6.58-11.57,2.04-15.69,2.24-1.07,4.77-1.54,7.18-2.26,9.69-2.93,15.62-12.12,14.1-21.86-1.55-9.94-10.41-17.29-20.7-17.17-9.91,.11-17.79,7.44-19.07,17.68-.38,3.04-.5,6.17-1.4,9.06-2.53,8.11-6.98,9.44-13.61,4.04-10.2-8.31-20.25-16.81-30.37-25.23-6.15-5.11-12.29-10.23-18.55-15.43-13.58,16.32-26.37,31.69-39.29,47.21Z"/>
  <path class="cls-1" d="M142.95,339.14c-17.11,3.36-29.57-3.28-36.49-18.41-5.74-12.56-1.82-26.82,9.84-35.76,12.46-9.55,27.31-8.45,42.19,3.86,2.6-7.93,5.09-15.45,7.52-22.98,3-9.33,6.22-18.59,8.84-28.03,2.04-7.34,5.79-9.05,12.99-6.63,19.37,6.51,38.97,12.3,58.33,18.83,4.39,1.48,11.79,5.34,11.52,7.17-.8,5.47-3.68,11.58-7.68,15.42-7.82,7.5-10.65,12.92-8,21.81,2.88,9.64,13.52,15.17,23.36,12.15,9.14-2.8,14.36-13.46,11.47-22.98-.96-3.15-1.82-6.51-1.77-9.76,.17-10.56,4.39-13.43,14.37-10.26,18.41,5.85,36.83,11.65,55.22,17.57,13.4,4.31,13.44,4.4,9.2,17.46-5.08,15.61-10.28,31.19-14.83,44.96,9.48,3.08,18.23,4.7,25.63,8.77,4.62,2.54,8.59,8.28,10.46,13.44,5.44,15.04,.76,27.9-11.9,36.59-12.13,8.33-25.91,6.77-41.57-5.98-4.29,14.68-8.2,28.59-12.42,42.42-7.09,23.21-4.75,20.23-26.57,13.68-16.08-4.83-31.99-10.22-48-15.26-10.6-3.34-12.41-8.81-5.43-17.7,2.03-2.59,4.73-4.68,7.21-6.9,6.99-6.23,8.4-15.91,3.34-23.38-5.47-8.07-14.95-10.64-23.52-6.38-8.71,4.33-12.23,12.54-9.38,21.64,.66,2.1,1.3,4.26,1.52,6.43,1.39,13.55-2.86,17-15.5,12.94-20.25-6.51-40.47-13.11-60.83-19.23-7.07-2.12-8.66-5.66-6.38-12.39,5.81-17.21,11.25-34.54,17.26-53.13Zm198.99-42.96c-18.18-6.19-35.73-12.16-53.22-18.12,5.72,23.84-6.83,35.29-20.88,40.43-12.3,4.5-28.52-2.24-35.29-14.35-7.99-14.3-4.29-29.62,9.46-40.88-18.42-5.87-37.17-11.84-56.2-17.91-.35,.9-.91,2.16-1.33,3.46-5.41,16.8-10.74,33.63-16.2,50.41-3.08,9.47-9.04,10.69-15.9,3.34-1.7-1.83-2.96-4.07-4.68-5.89-5.36-5.67-11.84-7.11-19.11-4.39-7.91,2.95-12.18,8.81-12.27,17.25-.13,12.09,10.89,19.98,22.97,17.61,5.36-1.05,11.14,.07,16.74,.21-.58,5.28-.33,10.81-1.9,15.78-5.28,16.75-11.2,33.29-16.21,47.97,20.46,6.68,38.91,12.71,57.03,18.63-3.26-18.45,2.24-32.17,15.8-38.37,13.36-6.12,29.66-2.28,38.48,9.5,5.24,7,7.88,15.44,5.1,23.72-2.6,7.75-7.5,14.72-10.42,20.21,16.03,5.34,33.67,11.21,51.66,17.2,5.62-17.82,11.33-35.99,17.09-54.14,3.33-10.51,9.02-11.64,16.58-3.33,1.31,1.44,2.63,2.88,3.92,4.36,6.46,7.41,15.27,8.45,24.06,2.82,6.88-4.41,9.6-13.58,6.36-21.47-3.87-9.43-11.39-13.25-21.46-10.9-18.17,4.23-20.72,1.54-15.14-16.37,5.06-16.25,10.37-32.42,14.98-46.78Z"/>
</svg>