<?xml version="1.0" encoding="UTF-8"?>
<svg id="Layer_1" data-name="Layer 1" xmlns="http://www.w3.org/2000/svg" viewBox="0 0 612 792">
  <defs>
    <style>
      .cls-1 {
        fill: #1b4d26;
        stroke: #1b4d26;
        stroke-miterlimit: 10;
        stroke-width: 3px;
      }
    </style>
  </defs>
  <path class="cls-1" d="M339.79,578.6c-23.32,13.19-38.52,13.59-51.77,1.59-11.97-10.84-15.62-27.51-9.2-41.99,7.16-16.15,22.19-23.26,44.77-20.59-5.52-20.34-10.93-40.33-16.36-60.31-3.29-12.12-2.31-13.97,9.73-17.17,24.41-6.49,48.82-12.96,73.27-19.29,11.85-3.07,15.41-.38,15.45,11.99,0,3.92-1.34,7.95-2.58,11.76-3.67,11.26,.69,22.41,11.05,27.6,9.69,4.86,22.17,1.68,28.43-7.25,6.55-9.34,4.95-21.7-3.84-29.67-2.09-1.89-4.43-3.56-6.22-5.7-8.93-10.69-6.41-18.36,6.87-21.88,23.83-6.32,47.7-12.49,71.38-19.32,7.82-2.25,10.98,.39,12.84,7.48,5.54,21.13,11.33,42.2,16.47,61.26,9.99-3.25,19.67-8.56,29.53-8.9,7.53-.26,16.35,4.39,22.72,9.29,13.04,10.04,15.8,28.61,8.24,43.45-7.7,15.11-24.32,22.44-42.85,18.3,.2,2.23,.1,4.27,.61,6.14,5.11,18.97,10.38,37.9,15.46,56.87,2.85,10.62,1.37,12.95-9.48,15.84-23.82,6.35-47.66,12.65-71.48,19.03-10.04,2.69-13.57,.77-14.34-9.29-.35-4.51,.59-9.35,1.97-13.72,3.98-12.6,.22-23.28-10.63-28.52-9.77-4.72-22.72-1.44-28.48,7.21-6.85,10.3-4.71,21.38,4.6,30.35,4.29,4.14,7.86,9.66,9.9,15.23,.88,2.4-2.3,8.81-4.76,9.52-27.55,8.01-55.28,15.38-83.04,22.63-5.57,1.46-9.1-.69-10.73-7.13-5.46-21.67-11.6-43.16-17.51-64.83Zm171.26-175.94c-22.41,6.04-44.3,11.93-67.06,18.06,17.69,17.98,20.83,35.63,10.22,51.53-9.52,14.27-28.04,20.54-43.62,13.04-6.94-3.34-13.5-9.28-17.9-15.65-7.11-10.31-6.18-22.28-.88-35.08-24.48,6.58-47.47,12.77-71.08,19.12,6.17,22.87,12.15,44.82,17.99,66.81,3.11,11.69,.31,14.91-11.7,13.55-2.73-.31-5.43-1.25-8.06-2.13-10.98-3.64-21.73,.61-26.92,10.73-5.02,9.79-2.11,22.23,6.68,28.58,9.46,6.84,21.42,5.51,29.62-3.25,2.35-2.51,4.53-5.28,7.23-7.33,7.62-5.8,12.22-4.21,14.96,4.89,1.26,4.19,2.36,8.42,3.51,12.64,5.19,19.17,10.37,38.34,15.65,57.85,23.92-6.47,46.82-12.66,70.5-19.06-17.64-16.89-21.23-34.43-11.21-50.27,9.63-15.23,27.75-21.94,43.96-14.54,7,3.2,13.65,9.07,18.17,15.36,7.28,10.14,6.97,22.05,1.44,33.87,2.13,.2,3.08,.54,3.88,.33,19.62-5.07,39.27-10.04,58.75-15.61,1.63-.47,3.44-5.38,2.88-7.67-4.34-17.87-9.32-35.59-13.96-53.39-6.44-24.69-5.29-25.8,19.47-19.04,8.5,2.32,15.61-.35,21.17-6.52,6.01-6.68,8.49-14.55,4.48-23.37-3.6-7.91-9.09-13.12-18.31-14.03-9.9-.97-16.23,3.69-22.42,10.81-3.01,3.46-8.89,5.23-13.7,5.8-1.5,.18-4.54-5.87-5.55-9.45-6.19-21.85-12.01-43.8-18.19-66.62Z"/>
  <path class="cls-1" d="M155.91,537.71c8.43,21.69,5.16,37.96-9.27,49.06-12.63,9.71-30.28,10.12-42.89,1.01-15.43-11.15-18.77-26.35-10.59-50.07-21.47,0-42.72-.29-63.95,.14-8.86,.18-12.36-2.8-12.21-11.93,.41-25.71,.12-51.44,.14-77.16,0-12.54,5.01-16.26,17.08-12.16,3.75,1.27,7.03,3.99,10.48,6.12,9.19,5.68,21.81,3.6,28.85-4.8,6.81-8.13,6.53-21.33-.63-29.39-7-7.89-18.85-9.3-28.19-4.18-5.59,3.06-11.67,5.74-17.85,7.1-6.32,1.39-9.83-2.1-9.79-9.05,.14-26.66,.13-53.32,0-79.98-.03-7,3.29-9.15,9.89-9.08,21.92,.23,43.84,.09,66.87,.09-5.71-11.47-8.11-22.9-2.89-33.92,2.95-6.23,7.7-12.36,13.17-16.5,12.67-9.57,30.76-8.6,42.87,.89,13.89,10.89,16.86,26.18,9.04,49.52,21.19,0,42.04-.02,62.88,0q14.68,.02,14.7,14.54c.01,23.53,.02,47.05,0,70.58-.01,12.64-5.1,16.32-17.15,12.01-3.46-1.24-6.56-3.54-9.7-5.55-9.52-6.12-21.56-4.77-29.01,3.35-7.41,8.08-7.58,21.95-.37,30.21,7.03,8.06,19.48,9.27,29.18,3.99,5.81-3.16,12.42-5.53,18.91-6.36,2.34-.3,7.7,4.88,7.75,7.64,.58,28.53,.41,57.08,.31,85.62-.03,7.2-4.86,8.37-10.91,8.33-21.93-.15-43.87-.06-66.72-.06ZM31.12,395.57c26.35-11.35,40.86-9.83,53.38,5.28,10.11,12.2,11.27,30.28,1.22,43.45-4.32,5.66-11.02,10.18-17.56,13.3-13.09,6.24-25.3,1.12-36.93-6.91v73.61c21.54,0,42.47-.27,63.38,.17,5.81,.12,11.58,2.36,17.37,3.62-1.98,5.96-3.17,12.35-6.12,17.78-5.03,9.24-5.12,18.34,1.21,26.23,6.19,7.7,15.87,10.39,25.21,7,9.15-3.32,15.72-11.92,14.51-21.64-.68-5.5-4.8-10.48-6.51-15.96-1.41-4.54-2.63-9.69-1.73-14.11,.35-1.68,6.82-2.4,10.6-2.99,3.06-.48,6.26-.1,9.39-.1,19.98,0,39.96,0,60.5,0v-73.03c-21.97,12.26-39.68,10.7-52.26-4.09-11.03-12.98-11.45-32.69-.96-45.94,12.54-15.84,30.22-17.77,53.33-5.39v-69.07c-24.01,0-47.48,.04-70.94-.02-10.63-.03-13.95-5.25-9.49-14.97,1.16-2.53,3.01-4.74,4.56-7.09,6.24-9.46,4.76-21.62-3.52-28.91-8.46-7.44-21.34-7.42-30.11,.05-8.45,7.19-9.98,19.15-3.75,28.88,1.85,2.88,3.99,5.67,5.29,8.8,3.64,8.79,.75,13.12-8.83,13.23-14.74,.16-29.47,.04-44.21,.04-8.95,0-17.91,0-27.02,0v68.77Z"/>
  <path class="cls-1" d="M334.61,336.01c-5.46,18.74-18.48,27.72-37.09,26.81-15.44-.75-27.61-12-30.49-28.19-3.08-17.3,5.65-31.51,25.56-39.97-6.55-6.67-12.74-13.01-18.98-19.3-7.73-7.79-15.29-15.76-23.32-23.22-6.25-5.8-6.02-10.42,.09-16.33,16.44-15.91,32.29-32.43,48.75-48.32,3.73-3.6,11.37-8.98,13.06-7.76,5.02,3.61,9.63,9.62,11.38,15.57,3.43,11.64,7.37,17.24,17.57,19.17,11.06,2.1,22.04-5.63,24.11-16.97,1.92-10.53-6-21.21-16.95-23.23-3.63-.67-7.41-1.54-10.62-3.27-10.41-5.6-11.1-11.28-2.81-19.57,15.29-15.3,30.54-30.63,45.89-45.87,11.18-11.1,11.29-11.1,22.09-.16,12.92,13.08,25.73,26.28,37.08,37.89,7.94-7.85,14.06-15.71,21.91-20.98,4.91-3.29,12.65-4.29,18.75-3.48,17.76,2.34,28.14,13.6,30.27,30.67,2.04,16.35-6.6,29.25-27.34,38.27,12.39,11.82,24.22,22.87,35.79,34.18,19.43,18.99,17.67,15.14-.07,33.46-13.08,13.51-26.62,26.56-39.89,39.89-8.78,8.82-15.15,7.81-20.39-3.71-1.53-3.36-2.22-7.11-3.15-10.72-2.6-10.15-11.5-16.54-21.53-15.35-10.84,1.28-18.28,9.39-18.45,20.11-.17,10.89,6.17,18.62,16.69,20.47,2.43,.43,4.9,.9,7.18,1.79,14.19,5.6,15.44,11.59,4.89,22.07-16.89,16.79-33.86,33.5-50.43,50.6-5.75,5.94-10.08,5.7-15.61-.03-14.13-14.63-28.56-28.97-43.95-44.51Zm59.69-220c-15.51,14.9-30.49,29.28-45.41,43.6,26.66,6.58,31.58,24.95,29.46,41.57-1.86,14.55-16.91,27.21-32.43,27.71-18.33,.59-31.66-10.98-35.78-30.45-15.32,15.3-30.91,30.87-46.74,46.68,.71,.81,1.68,2.01,2.76,3.1,13.93,14.02,27.91,27.99,41.79,42.06,7.83,7.94,5.98,14.49-4.86,17.53-2.69,.75-5.57,.85-8.26,1.62-8.4,2.41-13.16,8.12-14.2,16.74-1.13,9.39,2.49,16.65,10.84,21.09,11.96,6.36,25.47-.55,29.34-13.77,1.72-5.87,5.81-11.05,8.82-16.54,4.95,3.29,10.58,5.9,14.72,10.01,13.94,13.87,27.35,28.27,39.36,40.81,17.17-16.91,32.66-32.15,47.88-47.13-20.03-6.26-30.83-18.79-30.03-35.46,.79-16.44,12.99-30.67,29.25-33.38,9.66-1.61,19.41,.11,26.22,7.14,6.37,6.57,10.78,15.04,14.74,20.77,13.56-13.2,28.47-27.71,43.69-42.52-14.83-14.76-29.96-29.79-45.04-44.86-8.74-8.72-6.93-14.95,5.22-18.2,2.11-.56,4.22-1.13,6.35-1.65,10.7-2.61,16.26-10.84,15.18-22.47-.85-9.12-8.57-16.54-18.08-17.38-11.37-1-19.04,4.51-21.89,15.73-5.15,20.24-9.13,21.4-24.07,6.64-13.56-13.4-26.91-27-38.81-38.97Z"/>
</svg>